<svg id="Layer_1" xmlns="http://www.w3.org/2000/svg" baseProfile="tiny" version="1.2" viewBox="0 0 1653 1846">
  <!-- Generator: Adobe Illustrator 29.0.0, SVG Export Plug-In . SVG Version: 2.1.0 Build 186)  -->
  <g id="Layer_4">
    <path d="M0,0v1446c0,144.7,117.3,262,262,262h432c76.2,0,138,61.8,138,138h0c0-76.2,61.8-138,138-138h421c144.7,0,262-117.3,262-262V0H0Z" fill="#4f0341"/>
  </g>
  <g id="Layer_3">
    <path d="M972.6,1201.2c15.6,15.6,40.9,15.6,56.6,0h0s14.1-14.1,14.1-14.1c15.6-15.6,15.6-40.9,0-56.6h0s-102-102-102-102l-70.7,70.7,102,102Z" fill="#fff"/>
    <path d="M600,510l-113.8-113.8-178.8,178.8c17.7,17.6,27.7,43,25.8,71.9-2,29.4-15.9,56.8-36.8,77.1l44.8,44.8,99.5-99.5,146.8,146.9,40.9-100.5-117-117,88.5-88.7Z" fill="#fff"/>
    <path d="M989.4,817.8l-312.7,312.7c-15.6,15.6-15.6,40.9,0,56.6,0,0,0,0,0,0l14.1,14.1c15.6,15.6,40.9,15.6,56.6,0h0s293.8-293.8,293.8-293.8l-51.7-89.7Z" fill="#fff"/>
    <polygon points="849.4 936.6 731.1 818.3 679.4 908.1 778.7 1007.3 849.4 936.6" fill="#fff"/>
    <path d="M966.4,446s-11-32-49-51c-17.7-8.8-37.2-13.2-57-13-19.7,0-39.2,4.5-57,13-36,17-49,51-49,51l-418,1027,524-909,524,909L966.4,446Z" fill="#fff"/>
    <path d="M1424.6,818.2c-32.5-183.3-177.1-327.9-360.4-360.4l142.5,142.5-115.3,115.3,40.9,100.5,145.1-145.1,147.1,147.1Z" fill="#fff"/>
  </g>
</svg>