<svg xmlns="http://www.w3.org/2000/svg" width="969" height="1082" viewBox="0 0 969 1082">
<g>
<path d="M 0.00 965.50 L 0.00 0.00 L 969.00 0.00 L 969.00 966.00 C969.00,887.47 968.67,850.00 967.98,850.00 C965.30,850.00 964.80,856.94 966.47,870.70 C966.77,873.17 966.43,874.05 964.98,874.51 C962.24,875.38 959.79,880.75 959.51,886.50 C959.37,889.25 958.77,892.62 958.17,894.00 C957.56,895.38 956.61,898.33 956.04,900.58 C955.46,902.88 953.75,905.78 952.10,907.25 C950.26,908.89 948.59,911.91 947.56,915.43 C946.05,920.63 945.74,921.00 942.86,921.00 C940.17,921.00 939.85,921.28 940.33,923.25 C940.64,924.49 940.23,926.37 939.44,927.44 C938.65,928.51 938.00,930.45 938.00,931.76 C938.00,935.36 936.37,937.68 933.01,938.85 C931.34,939.43 929.70,940.71 929.36,941.70 C928.06,945.51 908.71,964.61 905.26,965.47 C901.30,966.47 900.00,967.86 900.00,971.12 C900.00,974.05 899.27,974.43 894.41,974.06 C893.27,973.97 891.75,974.60 891.04,975.45 C890.33,976.30 888.93,977.00 887.93,977.00 C886.92,977.00 884.57,978.58 882.70,980.50 C880.06,983.21 878.49,984.00 875.72,984.00 C873.75,984.00 871.47,984.67 870.64,985.50 C869.82,986.33 868.65,987.00 868.06,987.00 C867.46,987.00 865.97,987.52 864.74,988.16 C863.51,988.79 861.83,989.62 861.00,990.01 C860.17,990.39 859.36,991.64 859.19,992.79 C858.79,995.48 856.26,996.02 852.57,994.21 C848.51,992.21 840.23,993.23 838.31,995.96 L 836.90 997.99 L 832.89 995.94 C830.69,994.82 828.04,994.17 827.00,994.50 C825.97,994.83 766.93,995.19 695.81,995.30 C597.11,995.45 565.86,995.79 563.79,996.71 C561.83,997.58 560.25,997.64 558.12,996.89 C554.73,995.71 549.86,997.65 547.75,1001.03 C546.76,1002.62 545.41,1003.00 540.82,1003.00 C537.68,1003.00 534.84,1003.46 534.49,1004.02 C534.14,1004.58 533.49,1004.81 533.04,1004.53 C532.60,1004.25 531.99,1004.92 531.71,1006.01 C531.36,1007.34 530.34,1008.00 528.63,1008.00 C527.09,1008.00 525.64,1008.80 525.00,1010.00 C524.33,1011.24 522.90,1012.00 521.21,1012.01 C519.72,1012.01 517.21,1012.68 515.64,1013.51 C514.06,1014.33 511.64,1015.00 510.25,1015.00 C507.94,1015.00 507.78,1015.28 508.31,1018.51 C508.82,1021.69 508.43,1022.45 503.98,1026.83 C501.28,1029.49 498.19,1033.71 497.12,1036.22 C495.25,1040.59 494.94,1040.82 490.14,1041.48 C483.50,1042.39 480.21,1040.73 478.11,1035.40 C476.37,1030.97 471.38,1024.74 468.75,1023.73 C467.74,1023.35 467.01,1021.68 466.81,1019.34 C466.53,1015.96 466.16,1015.50 463.16,1014.89 C461.32,1014.52 459.32,1013.72 458.71,1013.11 C458.10,1012.50 456.60,1012.00 455.38,1012.00 C452.12,1012.00 450.00,1010.97 450.00,1009.39 C450.00,1008.05 448.15,1007.53 445.00,1007.98 C444.17,1008.09 443.82,1007.86 444.22,1007.46 C445.85,1005.81 440.21,1003.11 434.64,1002.89 C429.61,1002.68 428.88,1002.39 428.37,1000.33 C428.05,999.05 427.27,997.98 426.64,997.95 C423.27,997.80 415.05,996.90 412.00,996.34 C410.08,995.99 348.88,995.55 276.00,995.38 C203.12,995.20 142.57,994.83 141.43,994.56 C140.30,994.28 138.36,994.76 137.13,995.62 C135.62,996.68 134.02,996.95 132.20,996.46 C128.85,995.56 125.86,995.12 119.71,994.63 C117.07,994.42 114.67,994.00 114.36,993.69 C114.05,993.39 113.26,993.35 112.59,993.60 C111.92,993.86 110.50,993.11 109.44,991.93 C107.96,990.30 107.86,989.85 109.00,990.02 C112.04,990.46 113.00,989.95 113.00,987.88 C113.00,986.05 112.58,985.83 110.03,986.34 C107.96,986.76 106.81,986.48 106.23,985.44 C105.45,984.05 101.78,983.89 100.48,985.19 C100.16,985.50 98.13,985.31 95.95,984.76 C93.06,984.02 91.61,984.08 90.55,984.96 C88.58,986.59 84.78,985.30 85.27,983.16 C86.08,979.63 83.18,976.17 78.26,974.78 C74.23,973.65 73.45,973.03 73.18,970.72 C72.81,967.47 69.89,965.63 64.75,965.41 C62.69,965.32 60.32,965.19 59.49,965.12 C58.66,965.06 57.27,963.23 56.41,961.06 C55.24,958.13 54.11,956.96 52.02,956.50 C48.84,955.81 47.00,954.00 44.55,949.17 C43.59,947.27 42.32,946.05 41.59,946.33 C38.59,947.48 35.52,942.02 35.51,935.50 C35.50,930.80 35.34,930.48 32.76,930.18 C29.70,929.83 27.00,926.66 27.00,923.43 C27.00,921.28 23.98,917.78 22.38,918.08 C19.98,918.52 19.31,917.67 19.17,914.00 C19.08,911.80 18.59,909.21 18.07,908.25 C17.55,907.29 16.86,905.25 16.53,903.72 C16.09,901.63 15.20,900.79 12.95,900.34 C9.26,899.60 8.59,898.63 9.99,896.02 C11.49,893.22 9.59,886.53 6.72,884.51 C4.55,882.99 4.54,882.88 6.25,879.90 C8.24,876.42 8.54,871.94 6.89,870.29 C5.80,869.20 6.08,863.60 7.43,859.50 C8.18,857.21 3.37,849.00 1.28,849.00 C0.25,849.00 0.00,871.67 0.00,965.50 ZM 197.25 862.34 C201.46,864.04 205.74,861.36 206.19,856.74 C206.47,853.77 206.79,853.50 209.98,853.50 C213.98,853.50 215.03,851.30 212.92,847.35 C211.80,845.27 211.92,844.61 213.81,842.23 C215.00,840.73 216.59,838.15 217.34,836.50 C218.08,834.85 219.43,832.88 220.35,832.13 C221.26,831.37 222.00,830.15 222.00,829.42 C222.00,828.68 222.89,827.25 223.97,826.24 C225.05,825.24 226.05,822.91 226.19,821.08 C226.38,818.61 227.10,817.47 228.97,816.65 C232.00,815.32 233.07,814.02 232.77,812.00 C232.65,811.17 233.58,808.40 234.82,805.84 C237.04,801.29 239.26,799.42 241.10,800.56 C242.54,801.45 243.26,798.36 242.12,796.22 C241.35,794.78 241.45,793.78 242.51,792.39 C243.29,791.35 243.95,789.73 243.97,788.79 C243.99,787.85 245.69,785.51 247.76,783.60 C250.16,781.38 252.03,778.43 252.90,775.48 C253.82,772.36 254.99,770.57 256.50,770.00 C258.94,769.07 260.00,767.10 260.00,763.47 C260.00,762.17 260.77,760.67 261.72,760.14 C262.86,759.50 263.36,758.15 263.21,756.12 C263.02,753.67 263.52,752.78 265.74,751.64 C269.85,749.51 271.93,746.78 272.36,742.93 C272.72,739.74 273.00,739.50 276.28,739.50 C280.83,739.50 281.34,738.89 279.62,735.57 C278.41,733.23 278.40,732.45 279.60,730.17 C280.36,728.70 280.99,727.01 280.99,726.42 C281.00,724.87 287.13,715.73 289.16,714.23 C290.20,713.47 291.01,711.30 291.19,708.79 C291.47,705.02 291.81,704.54 294.75,703.78 C297.71,703.02 298.00,702.60 298.00,699.08 C298.00,696.64 298.53,695.01 299.44,694.66 C300.24,694.35 301.01,692.46 301.19,690.33 C301.47,686.87 301.83,686.46 305.50,685.43 C308.96,684.46 309.51,683.92 309.58,681.40 C309.70,676.80 312.78,671.71 315.08,672.31 C316.48,672.68 317.12,672.22 317.42,670.66 C319.40,660.17 320.69,656.45 323.60,652.69 C325.40,650.39 327.69,646.25 328.71,643.50 C330.42,638.84 330.81,638.48 334.28,638.19 C338.39,637.85 339.30,635.67 336.26,633.45 C334.61,632.24 334.61,632.08 336.26,630.26 C337.22,629.21 338.00,627.87 338.00,627.30 C338.00,626.73 339.80,624.00 342.00,621.24 C344.20,618.47 346.00,615.46 346.00,614.54 C346.00,613.62 346.48,611.97 347.07,610.87 C347.90,609.31 348.77,609.01 350.98,609.50 C353.23,609.99 353.95,609.72 354.44,608.20 C354.77,607.15 354.78,605.60 354.46,604.76 C353.74,602.88 356.76,593.38 358.71,591.44 C359.50,590.65 360.67,589.99 361.32,589.98 C362.96,589.94 365.86,583.80 366.63,578.72 C367.44,573.38 368.55,572.00 372.01,572.00 C375.34,572.00 376.96,568.50 373.74,568.26 C370.70,568.03 370.51,567.22 373.02,565.18 C374.29,564.16 375.49,562.28 375.68,561.01 C375.88,559.74 376.70,558.20 377.52,557.60 C379.04,556.48 381.34,552.67 384.82,545.50 C386.73,541.55 391.98,535.78 392.02,537.58 C392.04,538.08 392.77,537.03 393.65,535.24 C394.93,532.65 395.55,532.21 396.63,533.11 C397.38,533.73 398.00,535.31 398.00,536.62 C398.00,538.48 397.46,539.00 395.56,539.00 C392.53,539.00 391.23,540.81 393.69,541.59 C395.54,542.18 398.95,543.74 402.13,545.47 C403.10,546.00 404.04,547.80 404.20,549.47 C404.45,551.96 404.95,552.50 407.00,552.50 C408.87,552.50 410.26,553.66 412.50,557.08 C415.49,561.64 417.50,563.12 417.50,560.75 C417.50,560.06 418.17,559.50 419.00,559.50 C419.95,559.50 420.61,560.65 420.81,562.65 C420.97,564.38 421.96,566.55 422.99,567.49 C424.02,568.42 424.62,569.82 424.33,570.59 C424.01,571.41 424.41,572.00 425.28,572.00 C426.10,572.00 427.02,571.03 427.33,569.84 C427.79,568.08 428.17,567.90 429.35,568.87 C430.14,569.53 430.56,570.96 430.28,572.04 C429.70,574.24 431.72,577.29 433.15,576.41 C433.68,576.08 433.82,576.88 433.47,578.28 C433.04,580.00 433.32,580.91 434.43,581.33 C435.50,581.75 436.00,581.36 436.00,580.14 C436.00,579.14 436.30,578.04 436.66,577.68 C437.84,576.49 439.81,579.02 439.28,581.04 C438.71,583.23 440.71,586.30 442.14,585.41 C442.64,585.10 442.99,585.22 442.91,585.68 C442.83,586.13 442.82,587.51 442.88,588.75 C443.03,591.55 446.00,591.79 446.00,589.00 C446.00,586.42 447.50,586.45 449.33,589.06 C450.34,590.50 452.22,591.26 455.58,591.59 C458.23,591.85 460.57,592.23 460.78,592.44 C460.99,592.66 459.66,594.21 457.83,595.89 C456.00,597.57 454.05,599.42 453.50,599.98 C452.95,600.55 451.04,602.47 449.26,604.26 C441.09,612.44 433.21,620.39 430.15,623.55 C428.31,625.45 426.51,627.02 426.15,627.04 C425.79,627.06 423.93,629.08 422.00,631.54 C420.08,633.99 418.06,636.03 417.50,636.06 C416.95,636.09 414.92,638.09 413.00,640.50 C411.08,642.91 408.95,644.91 408.29,644.94 C407.62,644.97 406.60,645.87 406.03,646.94 C405.46,648.01 402.29,651.57 398.99,654.85 C395.70,658.12 393.00,661.26 393.00,661.83 C393.00,662.39 391.89,663.72 390.54,664.79 C389.19,665.85 387.56,667.88 386.92,669.29 C385.50,672.38 386.47,677.00 388.52,677.00 C389.45,677.00 390.00,677.97 390.00,679.61 C390.00,681.37 389.57,682.05 388.67,681.70 C386.90,681.02 386.88,684.05 388.64,686.09 C389.82,687.45 389.74,687.93 388.01,689.49 C385.16,692.07 385.48,693.99 388.75,694.04 C391.05,694.08 391.88,694.89 393.80,698.98 C395.58,702.79 396.68,703.95 398.72,704.19 C400.35,704.38 401.95,705.56 402.93,707.28 C405.44,711.74 409.41,713.17 420.62,713.68 C432.37,714.21 437.03,712.85 439.76,708.09 C440.71,706.45 443.06,704.28 444.99,703.28 C447.05,702.20 449.25,699.92 450.33,697.73 C451.34,695.68 452.78,694.00 453.54,694.00 C455.31,694.00 460.00,689.32 460.00,687.55 C460.00,686.81 461.52,685.30 463.38,684.20 C465.24,683.10 467.56,680.86 468.53,679.22 C469.50,677.58 471.69,675.62 473.40,674.87 C475.15,674.09 477.15,672.09 478.00,670.26 C478.83,668.48 480.30,666.76 481.28,666.44 C483.75,665.62 488.00,661.21 488.00,659.47 C488.00,658.68 489.47,657.41 491.26,656.67 C493.05,655.92 495.79,653.47 497.34,651.23 C500.36,646.87 503.20,645.09 503.87,647.12 C504.10,647.80 505.40,649.39 506.76,650.65 C508.13,651.93 508.99,653.59 508.68,654.39 C508.38,655.18 508.77,656.08 509.56,656.39 C510.50,656.75 511.00,656.28 511.00,655.03 C511.00,653.98 511.40,652.87 511.89,652.57 C513.25,651.73 515.11,654.54 514.41,656.39 C513.70,658.23 515.74,661.28 517.11,660.43 C517.60,660.13 518.00,661.26 518.00,662.94 C518.00,664.99 518.49,666.00 519.50,666.00 C520.33,666.00 521.00,665.11 521.00,664.00 C521.00,662.90 521.39,662.00 521.88,662.00 C523.17,662.00 525.09,664.58 524.35,665.32 C524.00,665.67 524.19,666.53 524.77,667.23 C525.35,667.93 525.98,669.85 526.16,671.50 C526.44,674.01 526.94,674.50 529.21,674.50 C532.68,674.50 535.40,677.22 535.46,680.74 C535.49,683.05 535.99,683.55 538.50,683.84 C542.68,684.31 544.00,685.70 544.00,689.62 C544.00,691.48 544.34,693.05 544.75,693.11 C545.16,693.18 546.77,693.38 548.33,693.56 C552.23,694.02 553.83,695.59 554.19,699.32 C554.45,701.96 554.93,702.51 557.03,702.55 C558.41,702.58 559.99,702.86 560.53,703.16 C561.06,703.47 562.62,703.99 564.00,704.32 C567.25,705.11 569.78,708.90 567.85,710.09 C564.56,712.12 569.20,713.27 582.50,713.70 C593.10,714.04 596.62,713.83 598.32,712.73 C601.81,710.48 604.90,710.05 606.45,711.59 C607.22,712.37 608.34,713.00 608.93,713.00 C610.34,713.00 610.30,709.70 608.87,708.27 C608.25,707.65 608.03,706.03 608.37,704.65 C609.19,701.39 614.52,699.96 616.37,702.50 C617.49,704.03 617.73,704.04 618.92,702.60 C620.03,701.26 619.92,700.90 618.20,700.26 C616.29,699.54 616.26,699.28 617.61,695.50 C619.15,691.17 619.99,659.41 618.62,657.19 C618.21,656.54 616.52,656.00 614.86,656.00 C612.49,656.00 610.45,654.63 605.42,649.68 C601.89,646.20 599.00,642.82 599.00,642.18 C599.00,641.53 598.48,641.00 597.85,641.00 C597.22,641.00 588.00,632.26 577.35,621.57 C566.71,610.88 556.67,601.19 555.04,600.03 C552.08,597.92 552.07,597.91 553.72,594.46 C554.63,592.56 555.94,591.00 556.64,591.00 C558.34,591.00 563.00,586.26 563.00,584.54 C563.00,583.78 564.69,582.34 566.75,581.33 C569.00,580.23 571.10,578.21 572.00,576.26 C572.83,574.48 574.40,572.75 575.50,572.40 C577.87,571.66 582.00,567.23 582.00,565.43 C582.00,564.73 583.69,563.34 585.75,562.33 C588.01,561.23 590.05,559.26 590.88,557.38 C591.66,555.59 593.59,553.66 595.38,552.88 C597.14,552.10 599.25,550.01 600.21,548.08 C601.16,546.17 603.23,544.10 604.89,543.40 C606.53,542.71 608.60,540.75 609.48,539.03 C611.02,536.05 615.29,533.45 616.95,534.47 C617.39,534.74 618.31,536.34 619.01,538.03 C619.97,540.34 620.00,541.40 619.14,542.26 C617.70,543.70 617.65,547.67 619.06,548.54 C619.65,548.90 620.89,548.51 621.81,547.67 C624.00,545.69 627.00,547.23 627.00,550.33 C627.00,551.56 627.88,553.20 628.96,553.97 C630.04,554.75 631.19,556.59 631.52,558.07 C631.84,559.54 633.21,561.78 634.55,563.05 C636.18,564.58 637.00,566.44 637.00,568.62 C637.00,570.57 637.71,572.41 638.75,573.19 C639.73,573.93 640.50,575.81 640.50,577.49 C640.50,579.75 641.16,580.79 643.22,581.78 C646.55,583.37 648.82,588.01 649.21,594.00 C649.45,597.74 649.84,598.50 651.50,598.50 C652.87,598.50 654.20,599.91 655.73,603.00 C656.95,605.47 659.76,609.36 661.98,611.63 C664.19,613.91 666.00,616.66 666.00,617.76 C666.00,618.86 666.70,620.33 667.54,621.04 C668.56,621.88 668.89,623.22 668.51,624.96 C668.01,627.23 668.40,627.82 671.18,629.05 C673.91,630.26 674.50,631.12 674.79,634.31 C675.15,638.21 678.93,644.82 681.67,646.35 C684.27,647.81 686.03,653.49 685.37,658.29 C684.89,661.80 685.10,662.82 686.38,663.32 C687.27,663.66 688.00,663.50 688.00,662.97 C688.00,662.44 688.67,662.00 689.48,662.00 C690.97,662.00 695.00,668.77 695.00,671.28 C695.00,672.03 696.57,674.48 698.49,676.72 C700.41,678.96 702.13,681.75 702.30,682.91 C702.48,684.08 703.16,685.56 703.81,686.21 C704.47,686.87 705.01,688.77 705.02,690.45 C705.04,692.86 705.69,693.81 708.15,695.00 C710.50,696.14 711.68,697.75 713.03,701.69 C715.31,708.35 715.71,708.94 718.60,710.04 C720.23,710.66 721.00,711.73 721.00,713.40 C721.00,714.75 721.56,716.47 722.25,717.22 C723.83,718.95 727.00,724.86 727.00,726.08 C727.00,726.59 727.87,727.87 728.94,728.94 C730.01,730.01 731.19,732.51 731.57,734.50 C732.13,737.51 732.89,738.37 736.12,739.67 C739.54,741.03 740.00,741.61 740.00,744.54 C740.00,746.36 740.79,748.65 741.75,749.61 C742.71,750.57 743.50,752.73 743.50,754.40 C743.50,756.73 744.25,757.91 746.71,759.47 C749.78,761.41 750.85,763.81 751.26,769.67 C751.37,771.16 752.25,772.00 754.11,772.37 C756.40,772.83 757.13,773.90 758.96,779.39 C760.15,782.96 761.66,786.06 762.31,786.28 C763.14,786.57 762.83,788.09 761.25,791.37 C759.27,795.48 759.19,796.14 760.57,796.66 C761.43,796.99 762.64,796.76 763.27,796.13 C766.15,793.25 769.02,795.72 770.46,802.32 C770.82,804.00 772.27,805.81 774.03,806.82 C776.07,807.98 777.19,809.56 777.64,811.91 C777.99,813.78 778.89,816.48 779.63,817.91 C780.38,819.33 780.99,821.03 780.99,821.68 C781.00,822.33 782.35,823.83 784.00,825.00 C785.65,826.17 787.00,827.81 787.00,828.63 C787.00,829.46 787.54,831.11 788.20,832.32 C788.86,833.52 789.51,835.17 789.65,836.00 C789.78,836.83 790.99,838.40 792.33,839.50 C793.66,840.60 796.42,844.99 798.45,849.25 C800.48,853.51 802.46,857.00 802.85,857.00 C803.25,857.00 804.37,858.36 805.36,860.03 C806.86,862.56 807.70,863.02 810.57,862.82 C813.95,862.59 814.00,862.53 814.00,857.93 C814.00,854.78 813.35,852.44 812.00,850.73 C810.90,849.33 810.00,847.55 810.00,846.78 C810.00,846.01 809.34,844.51 808.53,843.44 C807.72,842.37 807.05,840.59 807.03,839.47 C807.01,838.36 806.05,836.63 804.90,835.64 L 802.80 833.85 L 805.02 831.47 C807.83,828.49 807.01,826.00 803.23,826.00 C799.15,826.00 798.00,824.30 798.00,818.27 C798.00,814.64 797.56,812.77 796.61,812.40 C795.85,812.11 794.48,809.92 793.56,807.52 C792.65,805.13 791.25,802.93 790.45,802.62 C789.64,802.31 789.00,800.77 789.00,799.11 C789.00,797.49 788.11,794.08 787.02,791.54 C785.92,788.99 785.08,786.59 785.13,786.20 C785.55,783.38 784.60,780.88 782.16,778.33 C780.06,776.13 779.16,773.97 778.69,770.05 C777.97,763.96 775.98,760.40 772.36,758.76 C770.28,757.81 769.93,757.11 770.39,754.80 C771.02,751.64 770.54,750.24 764.37,737.39 C761.97,732.38 760.00,726.96 760.00,725.34 C760.00,723.72 759.58,721.97 759.08,721.45 C758.57,720.93 758.01,719.16 757.83,717.53 C757.55,714.98 755.06,712.68 751.25,711.42 C750.90,711.30 749.72,693.31 749.77,688.75 C749.78,686.69 749.51,684.96 749.15,684.92 C748.79,684.87 747.24,684.75 745.69,684.63 C741.94,684.36 740.82,682.40 741.36,677.02 L 741.39 676.72 C741.54,675.26 741.63,674.29 741.44,673.39 C741.04,671.56 739.45,669.99 734.63,665.10 C733.05,663.50 732.04,661.75 732.37,661.21 C732.70,660.67 732.31,658.04 731.50,655.37 C729.72,649.50 729.50,646.68 731.00,649.00 C732.73,651.68 732.05,649.03 729.95,644.91 C728.83,642.71 727.24,640.64 726.42,640.33 C724.32,639.53 722.20,635.05 721.62,630.21 C721.35,627.95 720.62,625.17 720.02,624.03 C719.41,622.89 719.16,621.56 719.46,621.07 C719.76,620.57 718.66,619.57 717.01,618.84 C714.14,617.58 713.53,616.70 713.95,614.54 C714.06,614.01 713.62,611.70 712.97,609.40 C712.09,606.27 712.09,604.70 712.95,603.10 C714.54,600.12 713.28,598.44 711.00,600.50 C709.92,601.48 708.95,601.74 708.59,601.14 C707.86,599.97 709.95,595.00 711.16,595.00 C711.62,595.00 712.00,594.35 712.00,593.56 C712.00,592.62 710.70,592.01 708.26,591.81 C704.77,591.52 704.48,591.24 703.90,587.65 C703.56,585.53 702.72,583.45 702.04,583.02 C701.07,582.42 701.16,581.68 702.44,579.73 C703.54,578.06 703.86,576.30 703.41,574.51 C702.85,572.27 702.31,571.90 700.18,572.31 C696.32,573.04 695.11,572.16 694.47,568.15 C693.34,561.00 690.71,553.46 688.49,551.00 C687.26,549.62 685.93,546.70 685.56,544.50 C685.18,542.30 684.02,538.84 682.99,536.82 C681.57,534.05 681.32,532.38 681.96,530.14 C682.92,526.80 682.51,526.00 679.83,526.00 C678.83,526.00 678.00,525.52 678.00,524.94 C678.00,524.36 677.62,524.12 677.16,524.40 C676.69,524.69 676.23,522.60 676.13,519.75 C676.02,516.52 675.15,513.25 673.82,511.04 C664.34,495.27 664.05,494.55 665.46,490.45 C666.98,486.02 666.60,484.33 663.91,483.47 C659.87,482.19 662.08,480.04 669.00,478.50 C672.64,477.69 673.76,476.90 674.88,474.36 C675.79,472.30 677.68,470.59 680.38,469.36 C683.36,468.01 684.60,466.81 684.85,465.00 C685.32,461.60 686.81,460.00 689.50,460.00 C692.10,460.00 693.35,458.69 694.68,454.55 C695.32,452.59 696.54,451.37 698.38,450.87 C702.27,449.83 704.00,448.13 704.00,445.36 C704.00,443.67 704.82,442.64 706.75,441.87 C711.81,439.87 712.41,439.35 713.22,436.21 C713.72,434.29 715.07,432.60 716.73,431.80 C718.21,431.08 720.71,428.59 722.28,426.25 C723.85,423.91 725.64,422.00 726.25,422.00 C727.84,422.00 732.00,417.91 732.00,416.35 C732.00,415.63 733.79,414.13 735.98,413.01 C738.17,411.89 740.68,409.58 741.57,407.86 C742.46,406.15 744.38,403.72 745.84,402.46 C748.16,400.46 748.69,400.36 750.00,401.61 C754.06,405.51 771.36,422.74 778.00,429.51 C782.12,433.71 786.96,438.58 788.74,440.33 C790.53,442.07 791.99,443.84 791.99,444.25 C792.00,444.66 792.67,445.00 793.50,445.00 C794.33,445.00 795.00,445.34 795.01,445.75 C795.02,446.82 807.26,459.30 816.29,467.44 C820.52,471.26 824.22,475.12 824.51,476.02 C825.37,478.73 833.04,483.21 835.68,482.54 C838.26,481.90 838.80,479.25 836.53,478.37 C835.39,477.93 835.11,476.03 835.26,469.66 C835.49,459.99 834.83,450.99 833.93,451.54 C833.58,451.76 832.79,450.83 832.17,449.48 C831.02,446.95 831.52,444.00 833.11,444.00 C834.94,444.00 833.92,442.19 831.75,441.60 C826.49,440.16 825.68,438.59 825.48,429.42 C825.29,420.87 825.26,420.78 821.66,417.58 C818.58,414.84 815.43,408.90 814.61,404.27 C814.49,403.60 813.45,402.02 812.31,400.77 C809.40,397.59 807.00,392.55 807.00,389.62 C807.00,388.00 805.95,386.39 804.00,385.00 C802.35,383.83 801.00,382.38 801.00,381.78 C801.00,381.19 799.45,378.82 797.56,376.50 C795.66,374.19 793.82,371.13 793.46,369.70 C793.10,368.27 791.77,366.42 790.49,365.59 C789.22,364.75 787.38,362.27 786.42,360.08 C785.30,357.55 783.90,355.99 782.58,355.80 C781.35,355.62 779.91,354.17 779.07,352.25 C778.13,350.11 776.50,348.59 774.32,347.80 C772.28,347.06 771.00,345.92 771.00,344.85 C771.00,343.25 767.48,340.15 762.50,337.38 C761.24,336.68 760.48,335.19 760.44,333.34 C760.35,329.52 759.34,328.00 756.90,328.00 C755.81,328.00 753.22,326.26 751.13,324.14 C749.05,322.01 746.14,319.49 744.67,318.52 C743.04,317.45 742.00,315.86 742.00,314.44 C742.00,311.69 740.36,310.45 737.25,310.85 C734.00,311.27 728.99,307.41 729.27,304.70 C729.48,302.74 729.01,302.49 725.00,302.39 C720.47,302.29 713.79,299.36 713.83,297.50 C713.89,295.38 710.60,293.00 707.90,293.20 C706.37,293.32 704.27,292.65 703.23,291.71 C702.19,290.77 700.42,290.00 699.29,290.00 C696.96,290.00 695.38,288.41 694.85,285.52 C694.59,284.15 693.39,283.34 690.99,282.90 C689.07,282.56 686.34,281.81 684.93,281.23 C683.52,280.66 680.65,280.27 678.56,280.37 C675.58,280.51 674.42,280.05 673.26,278.27 C672.44,277.02 671.02,276.00 670.11,276.00 C669.19,276.00 667.56,275.38 666.47,274.63 C665.39,273.88 662.92,273.00 661.00,272.69 C649.06,270.72 644.00,269.03 644.00,267.00 C644.00,266.48 643.33,266.32 642.50,266.64 C641.67,266.95 641.00,266.73 641.00,266.13 C641.00,265.48 638.93,265.11 635.75,265.20 C632.86,265.28 628.92,265.01 627.00,264.60 C624.54,264.08 622.93,264.28 621.57,265.29 C619.73,266.67 619.72,266.89 621.32,270.27 C622.25,272.21 623.00,274.03 623.00,274.32 C623.00,274.90 643.21,295.00 643.80,295.00 C644.00,295.00 645.59,296.65 647.34,298.66 C649.08,300.67 651.32,303.03 652.33,303.91 C653.33,304.78 663.46,314.75 674.83,326.06 C686.20,337.37 696.27,346.91 697.22,347.27 C699.13,347.99 700.53,352.17 699.64,354.50 C699.32,355.33 696.92,357.37 694.30,359.03 C691.67,360.69 688.93,363.19 688.21,364.58 C687.48,365.96 685.57,367.90 683.96,368.88 C682.35,369.86 679.99,372.20 678.73,374.08 C677.46,375.96 675.25,378.07 673.81,378.76 C672.36,379.45 670.29,381.55 669.18,383.41 C668.08,385.28 665.91,387.41 664.35,388.16 C662.79,388.91 660.92,390.77 660.19,392.29 C659.46,393.82 657.09,396.18 654.93,397.54 C652.77,398.91 651.00,400.55 651.00,401.20 C651.00,402.78 646.95,407.00 645.44,407.00 C644.77,407.00 643.19,408.30 641.93,409.88 C639.91,412.42 639.16,412.70 635.57,412.25 C629.82,411.52 629.00,410.53 629.00,404.34 C629.00,400.87 628.37,397.97 627.25,396.25 C626.29,394.78 626.00,393.89 626.62,394.27 C627.29,394.68 627.11,393.21 626.15,390.53 C625.27,388.10 624.35,386.32 624.10,386.56 C623.00,387.67 619.00,382.42 619.00,379.87 C619.00,378.34 618.46,375.91 617.81,374.47 C616.87,372.43 616.88,371.42 617.84,369.89 C619.37,367.43 618.56,366.00 615.64,366.00 C612.63,366.00 611.00,364.18 611.00,360.82 C611.00,359.29 610.36,356.34 609.59,354.27 C607.16,347.81 606.90,345.33 608.51,343.99 C609.33,343.31 610.00,342.39 610.00,341.95 C610.00,340.16 606.69,338.00 603.95,338.00 C601.58,338.00 600.93,337.49 600.45,335.25 C600.13,333.74 599.36,331.38 598.75,330.00 C598.14,328.62 597.46,325.92 597.24,324.00 C597.01,321.93 595.88,319.68 594.49,318.50 C592.98,317.21 591.96,315.01 591.61,312.29 C591.31,309.98 590.53,307.23 589.88,306.18 C588.69,304.27 588.96,302.93 591.15,299.89 C591.79,299.00 592.04,297.54 591.69,296.64 C591.18,295.30 590.64,295.21 588.60,296.14 C584.83,297.86 583.32,296.66 582.55,291.33 C582.16,288.67 581.20,285.49 580.41,284.26 C579.43,282.74 579.18,280.75 579.61,278.01 C580.18,274.45 580.03,274.00 578.25,274.00 C575.68,274.00 574.51,272.51 572.95,267.28 C572.26,264.96 570.92,262.21 569.96,261.19 C568.87,260.02 568.40,258.36 568.70,256.79 C569.08,254.82 568.51,253.79 566.09,252.06 C563.73,250.38 563.00,249.10 563.00,246.63 C563.00,244.85 562.44,242.79 561.75,242.05 C560.75,240.98 560.75,240.85 561.75,241.41 C563.36,242.32 563.40,239.80 561.80,238.20 C559.97,236.37 558.71,236.77 559.29,239.00 C559.58,240.10 559.40,241.25 558.91,241.56 C558.41,241.87 558.00,241.44 558.00,240.61 C558.00,239.78 557.40,238.74 556.67,238.30 C555.95,237.86 555.06,236.71 554.71,235.75 C554.27,234.55 552.99,234.00 550.68,234.00 C548.45,234.00 546.37,233.14 544.59,231.50 C543.11,230.12 541.20,229.00 540.36,229.00 C539.51,229.00 538.07,228.08 537.16,226.96 C536.25,225.83 533.92,224.72 532.00,224.48 C530.08,224.24 527.24,223.77 525.71,223.43 C524.10,223.08 522.30,223.34 521.46,224.03 C520.28,225.01 520.00,224.93 520.00,223.65 C520.00,219.77 510.54,217.77 499.50,219.33 C497.85,219.56 495.28,219.13 493.80,218.38 C492.31,217.62 490.40,217.00 489.55,217.00 C487.49,217.00 487.58,219.88 489.71,222.23 C491.19,223.86 491.22,224.25 489.96,225.04 C489.16,225.54 487.60,225.64 486.50,225.25 C484.94,224.70 475.22,224.52 469.75,224.94 C469.34,224.97 469.00,225.90 469.00,227.00 C469.00,229.45 467.69,229.52 463.91,227.29 C460.33,225.18 458.16,226.55 459.91,229.83 C460.83,231.55 460.58,232.16 458.25,233.77 C456.74,234.82 454.71,235.96 453.73,236.31 C452.76,236.66 451.55,238.06 451.03,239.42 C450.51,240.78 448.97,242.63 447.61,243.52 C446.24,244.42 444.84,246.47 444.48,248.08 C444.13,249.70 443.03,251.45 442.05,251.97 C441.03,252.52 440.00,254.60 439.64,256.84 C439.23,259.42 438.20,261.30 436.63,262.33 C434.82,263.51 434.22,264.82 434.18,267.73 C434.13,271.92 430.56,282.55 428.37,285.08 C427.62,285.95 427.00,287.36 427.00,288.22 C427.00,289.08 425.90,290.06 424.55,290.40 C422.23,290.98 422.17,291.17 423.42,294.14 C424.59,296.93 424.52,297.48 422.80,299.20 C421.42,300.58 421.04,301.91 421.47,303.88 C421.92,305.91 421.53,307.11 419.97,308.53 C417.28,310.97 412.76,320.73 412.81,324.00 C412.84,325.71 411.54,327.65 408.70,330.15 C405.01,333.39 404.53,334.33 404.32,338.65 C404.20,341.32 403.74,345.94 403.30,348.92 C402.56,353.96 402.26,354.41 399.00,355.50 C395.23,356.75 395.63,355.68 393.25,370.75 C392.50,375.49 392.49,375.50 388.25,375.81 C383.75,376.13 383.04,376.96 385.52,379.01 C386.68,379.98 386.88,381.45 386.39,385.39 C386.04,388.20 385.36,390.93 384.88,391.45 C383.68,392.74 383.76,400.00 384.97,400.00 C385.50,400.00 385.67,400.70 385.34,401.56 C385.01,402.41 384.18,402.90 383.50,402.64 C382.81,402.37 381.10,402.75 379.70,403.48 C378.29,404.21 376.88,404.55 376.57,404.24 C375.97,403.64 375.67,406.11 375.93,409.55 C376.02,410.68 375.47,412.80 374.71,414.26 C373.66,416.29 373.05,416.65 372.16,415.76 C371.52,415.12 371.00,414.09 371.00,413.46 C371.00,412.83 369.86,411.80 368.47,411.17 C367.08,410.54 365.68,409.32 365.35,408.47 C365.02,407.61 363.01,406.02 360.88,404.94 C358.74,403.85 357.00,402.56 357.00,402.07 C357.00,401.57 354.50,398.73 351.43,395.74 C348.37,392.75 345.74,389.45 345.59,388.40 C345.44,387.35 344.37,386.36 343.20,386.19 C342.04,386.01 340.05,384.72 338.79,383.31 C335.58,379.72 332.68,376.78 330.42,374.83 C325.70,370.75 317.00,361.04 316.98,359.83 C316.97,359.10 315.52,357.83 313.77,357.00 C311.86,356.10 310.07,354.21 309.29,352.26 C308.06,349.17 308.15,348.88 311.25,346.03 C313.04,344.39 314.95,342.55 315.50,341.95 C316.91,340.41 340.31,317.22 347.34,310.40 C354.42,303.53 356.68,298.41 354.19,294.86 C353.29,293.56 351.28,291.43 349.74,290.13 C348.19,288.83 346.26,286.47 345.45,284.90 C344.63,283.32 342.85,281.75 341.50,281.41 C340.14,281.07 338.08,279.25 336.92,277.37 C335.76,275.49 333.53,273.29 331.97,272.49 C330.42,271.68 328.85,270.12 328.50,269.01 C328.15,267.90 326.21,265.76 324.18,264.26 C319.91,261.07 318.69,259.45 318.00,256.00 C317.60,254.06 316.78,253.43 314.32,253.19 C311.11,252.88 307.62,249.17 307.54,246.00 C307.52,245.12 306.37,244.37 304.76,244.18 C301.64,243.83 299.00,240.65 299.00,237.25 C299.00,235.50 298.29,234.81 296.02,234.35 C292.52,233.65 291.32,232.41 290.85,229.00 C290.56,226.91 289.89,226.45 286.72,226.19 C283.24,225.90 282.84,226.15 281.49,229.37 C280.68,231.30 278.78,233.62 277.26,234.53 C275.74,235.44 273.26,237.96 271.74,240.12 C270.22,242.28 267.94,244.53 266.66,245.11 C265.38,245.69 263.58,247.45 262.65,249.01 C261.73,250.57 259.40,252.82 257.49,254.01 C255.57,255.19 254.00,256.58 254.00,257.08 C254.00,258.31 238.26,274.00 237.03,274.00 C236.49,274.00 235.37,275.32 234.53,276.94 C233.69,278.56 231.77,280.62 230.26,281.53 C228.74,282.44 226.26,284.96 224.74,287.12 C223.22,289.29 220.92,291.46 219.64,291.95 C218.35,292.44 216.36,294.42 215.22,296.36 C214.07,298.29 211.79,300.57 210.14,301.43 C208.49,302.28 206.85,303.90 206.49,305.03 C206.13,306.15 204.09,308.23 201.95,309.65 C199.81,311.07 197.79,313.10 197.45,314.17 C197.11,315.24 194.99,317.44 192.75,319.07 C190.50,320.70 187.84,323.37 186.85,325.01 C185.85,326.66 184.57,328.06 184.01,328.12 C183.46,328.19 182.55,328.36 182.00,328.50 C181.45,328.64 180.58,328.81 180.06,328.88 C178.60,329.07 177.69,337.51 178.68,341.71 C179.38,344.72 180.34,345.87 183.31,347.27 C186.67,348.86 187.04,349.40 186.83,352.47 C186.68,354.72 187.27,356.64 188.55,358.05 C190.22,359.90 190.51,361.75 190.55,370.86 C190.58,376.71 190.29,382.69 189.90,384.15 C189.42,385.97 189.79,387.76 191.08,389.90 C192.48,392.20 192.63,393.00 191.64,393.00 C189.83,393.00 187.46,395.88 186.30,399.50 C185.75,401.19 184.50,402.66 183.42,402.86 C180.14,403.47 179.12,404.96 179.67,408.33 C180.14,411.23 179.81,411.74 176.24,413.74 C174.07,414.96 172.00,415.67 171.65,415.31 C171.29,414.96 170.99,416.20 170.98,418.08 C170.98,419.96 170.59,422.10 170.13,422.83 C168.60,425.24 170.39,430.41 173.24,431.78 C175.41,432.83 184.18,440.93 188.50,445.89 C192.51,450.49 201.00,454.80 201.00,452.23 C201.00,451.81 203.51,450.38 206.57,449.06 C210.65,447.30 212.94,445.50 215.12,442.33 C216.76,439.95 218.74,438.00 219.53,438.00 C220.32,438.00 222.18,436.17 223.66,433.93 C225.14,431.70 227.55,429.25 229.00,428.50 C230.46,427.74 232.75,425.52 234.08,423.56 C235.41,421.60 237.31,419.73 238.31,419.41 C239.30,419.09 241.44,416.99 243.07,414.75 C245.96,410.76 251.22,406.72 252.41,407.57 C252.73,407.81 252.80,407.72 252.55,407.38 C252.30,407.04 252.64,406.19 253.30,405.49 C253.96,404.79 255.28,403.27 256.24,402.11 C258.02,399.95 261.00,399.23 261.00,400.96 C261.00,401.49 262.16,403.00 263.59,404.32 C265.75,406.33 265.92,406.82 264.59,407.33 C263.71,407.66 263.00,408.85 263.00,409.97 C263.00,412.53 266.49,412.73 267.88,410.25 C268.82,408.59 268.90,408.59 269.55,410.29 C269.93,411.27 271.54,412.74 273.12,413.56 C276.45,415.29 276.89,417.00 274.00,417.00 C272.89,417.00 272.00,417.67 272.00,418.50 C272.00,419.33 272.61,420.00 273.37,420.00 C274.12,420.00 275.87,420.90 277.26,421.99 C278.65,423.08 280.85,424.18 282.15,424.42 C283.44,424.66 284.64,424.88 284.82,424.93 C285.00,424.97 284.41,425.74 283.51,426.64 C281.52,428.62 282.99,430.60 285.68,429.57 C287.72,428.79 288.64,429.08 288.21,430.37 C287.74,431.77 291.00,436.12 292.04,435.47 C292.57,435.15 293.00,436.25 293.00,437.94 C293.00,439.62 293.45,441.00 294.00,441.00 C294.55,441.00 295.00,440.10 295.00,439.00 C295.00,436.53 297.85,436.33 298.62,438.75 C298.93,439.71 299.57,441.40 300.05,442.50 C300.53,443.60 301.05,445.62 301.21,447.00 C301.46,449.12 302.00,449.49 304.75,449.41 C306.54,449.36 308.00,449.62 308.00,450.00 C308.00,450.37 309.18,451.22 310.62,451.87 C313.09,453.00 313.15,453.18 311.60,454.89 C310.26,456.38 310.19,456.91 311.26,457.80 C312.09,458.49 313.10,458.55 314.03,457.96 C314.84,457.45 315.80,457.02 316.18,457.02 C317.43,456.99 319.90,463.09 319.29,464.70 C318.53,466.65 321.42,468.96 323.84,468.33 C326.14,467.73 328.75,470.76 329.17,474.50 C329.50,477.46 329.61,477.51 337.00,478.27 C344.02,478.98 344.63,478.89 346.56,476.77 C348.78,474.34 351.00,473.41 351.00,474.93 C351.00,475.44 350.35,476.51 349.55,477.31 C348.75,478.11 348.34,479.01 348.65,479.31 C348.95,479.62 348.82,480.46 348.36,481.18 C347.02,483.27 345.03,489.32 345.02,491.34 C345.01,492.35 344.13,493.93 343.06,494.84 C341.10,496.52 335.48,511.81 336.46,512.79 C337.49,513.83 332.95,516.12 331.05,515.52 C329.73,515.10 328.78,515.53 328.05,516.90 C327.18,518.53 327.41,519.30 329.24,521.01 C332.01,523.59 332.11,524.82 329.80,527.88 C328.81,529.20 328.00,530.84 328.00,531.53 C328.00,532.23 326.94,534.66 325.64,536.95 C324.35,539.23 323.41,542.20 323.55,543.55 C323.70,544.90 323.53,546.00 323.16,546.00 C321.63,546.00 317.78,555.06 318.25,557.54 C318.67,559.74 318.21,560.41 315.32,561.79 C312.86,562.96 312.01,563.94 312.35,565.21 C312.60,566.19 312.40,567.25 311.91,567.56 C311.41,567.87 311.00,569.38 311.00,570.93 C311.00,574.85 308.81,580.65 305.00,586.85 C303.22,589.74 302.03,592.36 302.35,592.68 C302.67,593.00 302.27,594.20 301.46,595.35 C300.66,596.50 300.00,598.67 300.00,600.16 C300.00,604.55 298.23,607.94 295.27,609.24 C291.65,610.83 291.00,611.88 291.42,615.50 C291.61,617.15 291.38,619.22 290.92,620.11 C290.46,620.99 289.97,623.37 289.83,625.39 C289.63,628.41 289.13,629.17 287.04,629.67 C282.77,630.69 281.97,631.94 282.12,637.38 C282.19,640.20 281.83,644.30 281.31,646.50 C280.78,648.71 280.68,651.71 281.07,653.18 C281.65,655.34 281.46,655.83 280.08,655.73 C278.31,655.60 272.00,657.91 272.00,658.69 C272.00,658.93 272.48,660.03 273.07,661.13 C273.85,662.58 273.82,663.52 272.96,664.55 C272.31,665.33 271.64,668.07 271.46,670.63 C271.29,673.19 270.75,675.56 270.26,675.89 C269.76,676.23 268.57,678.53 267.59,681.00 C266.62,683.47 265.30,686.13 264.67,686.89 C263.68,688.09 261.70,694.06 260.64,699.00 C260.47,699.83 259.46,700.96 258.41,701.51 C252.54,704.62 252.52,704.65 253.80,707.46 C255.35,710.86 252.85,719.55 249.46,722.50 C248.20,723.60 246.96,725.90 246.69,727.61 C246.43,729.32 245.77,731.57 245.22,732.61 C244.68,733.65 243.90,736.97 243.49,740.00 C243.07,743.08 241.81,746.71 240.62,748.26 C239.46,749.79 237.49,752.33 236.25,753.91 C234.58,756.04 234.00,758.12 234.00,761.93 C234.00,766.74 233.78,767.20 230.50,769.13 C228.30,770.43 227.34,770.98 227.18,771.70 C227.06,772.25 227.41,772.90 228.03,774.06 L 228.10 774.19 C228.98,775.84 228.79,776.79 227.10,779.08 C225.94,780.64 224.99,782.72 224.98,783.71 C224.97,785.94 223.61,788.16 222.41,787.93 C220.38,787.55 219.18,788.08 218.59,789.62 C218.10,790.91 218.48,791.14 220.49,790.76 C224.57,789.98 223.20,793.21 218.73,794.91 C215.81,796.02 214.99,799.59 217.15,801.75 C218.01,802.61 217.89,803.52 216.65,805.41 C215.74,806.80 215.00,809.46 215.00,811.34 C215.00,814.36 214.64,814.82 211.89,815.37 C209.17,815.92 208.86,816.30 209.41,818.50 C209.81,820.10 209.31,822.43 208.02,824.96 C206.17,828.59 205.27,831.57 205.07,834.71 C205.03,835.38 204.14,836.73 203.09,837.71 C202.05,838.69 200.42,841.87 199.47,844.77 C198.53,847.66 197.36,850.28 196.88,850.57 C195.48,851.44 195.81,861.76 197.25,862.34 ZM 506.43 546.85 C505.04,547.48 503.81,548.00 503.70,547.99 C503.59,547.99 494.86,539.24 484.30,528.56 C473.74,517.87 464.22,508.65 463.15,508.08 C462.07,507.50 460.21,505.00 459.01,502.51 C457.80,500.03 456.45,498.22 455.99,498.50 C454.66,499.33 449.16,494.13 448.82,491.72 C448.62,490.32 447.68,489.38 446.28,489.18 C443.85,488.84 439.00,483.67 439.00,481.42 C439.00,480.64 438.51,480.00 437.90,480.00 C436.61,480.00 430.06,477.08 428.24,475.70 C427.29,474.97 427.60,474.22 429.58,472.52 C431.01,471.29 432.08,469.43 431.97,468.39 C431.34,462.46 432.02,460.23 434.84,459.07 C436.87,458.23 438.30,456.40 439.84,452.68 C441.03,449.81 442.01,446.57 442.02,445.48 C442.04,442.71 443.10,441.56 446.00,441.15 C449.58,440.65 451.06,439.11 450.42,436.54 C450.09,435.21 450.68,432.95 451.90,430.91 C454.69,426.25 460.20,414.86 460.43,413.27 C460.80,410.78 462.66,409.75 464.76,410.87 C467.45,412.31 468.38,411.08 466.33,408.81 C464.76,407.07 464.81,406.80 467.33,404.18 C468.81,402.63 470.00,400.24 470.00,398.82 C470.00,395.91 472.29,393.51 474.33,394.30 C475.07,394.58 476.28,394.45 477.01,393.99 C478.09,393.33 478.02,392.68 476.62,390.54 C474.95,387.99 474.97,387.82 477.45,384.88 C478.85,383.21 480.00,381.51 480.00,381.09 C480.00,380.68 481.79,378.35 483.99,375.92 C486.39,373.25 487.98,370.50 487.99,368.97 C488.01,364.71 490.71,361.83 494.17,362.38 L 497.17 362.85 L 496.50 358.01 C495.55,351.09 498.92,345.58 503.58,346.43 C506.05,346.88 507.06,344.77 504.98,343.49 C503.84,342.78 504.61,341.00 506.06,341.00 C506.58,341.00 507.00,341.92 507.00,343.04 C507.00,344.15 507.73,346.18 508.62,347.54 C509.70,349.19 509.84,350.00 509.05,350.00 C508.35,350.00 508.00,351.12 508.18,352.75 C508.44,354.98 509.07,355.56 511.50,355.81 C514.89,356.17 517.00,358.36 517.00,361.54 C517.00,362.72 517.90,364.73 519.00,366.00 C520.10,367.27 521.00,368.71 521.00,369.21 C521.00,369.71 521.45,369.84 522.00,369.50 C522.55,369.16 523.00,369.39 523.00,370.00 C523.00,370.61 523.45,370.84 524.00,370.50 C524.55,370.16 525.00,370.63 525.00,371.54 C525.00,372.45 525.73,374.73 526.62,376.60 C527.50,378.48 528.00,380.88 527.72,381.94 C527.35,383.40 527.93,384.13 530.07,384.88 C532.02,385.55 533.12,386.77 533.53,388.69 C533.86,390.23 534.72,392.62 535.43,394.00 C536.14,395.38 537.02,397.74 537.38,399.25 C537.82,401.09 538.69,402.00 540.00,402.00 C541.32,402.00 542.16,402.89 542.58,404.75 C544.43,412.98 545.33,414.93 549.33,419.50 C551.74,422.25 554.06,425.62 554.48,427.00 C555.49,430.31 556.95,432.03 559.58,433.03 C561.20,433.65 561.95,435.08 562.55,438.68 C562.99,441.33 563.44,443.84 563.55,444.25 C563.66,444.66 563.81,445.69 563.88,446.53 C563.94,447.38 565.58,449.00 567.50,450.13 C569.47,451.29 571.00,453.00 571.00,454.02 C571.00,455.03 572.12,457.18 573.50,458.82 C576.45,462.33 576.62,463.82 574.25,465.57 C572.80,466.64 572.73,467.09 573.82,468.18 C574.91,469.27 575.36,469.20 576.44,467.74 C577.92,465.72 578.51,466.20 581.83,472.17 C583.71,475.54 583.74,475.89 582.19,476.58 C579.94,477.57 579.34,477.73 577.10,477.88 C576.06,477.94 574.15,479.14 572.85,480.52 C571.56,481.91 567.65,485.85 564.18,489.27 C560.70,492.70 557.32,496.07 556.68,496.77 C552.07,501.75 548.70,505.01 548.15,505.04 C547.79,505.06 545.93,507.08 544.00,509.54 C542.08,511.99 539.94,514.00 539.25,514.00 C538.56,514.00 538.00,514.34 537.99,514.75 C537.99,515.16 536.18,517.30 533.97,519.50 C531.75,521.70 529.39,524.07 528.72,524.76 C518.11,535.69 511.60,542.00 510.95,542.00 C510.50,542.00 509.87,542.83 509.55,543.85 C509.23,544.86 507.82,546.21 506.43,546.85 ZM 650.50 458.01 C649.40,459.78 648.27,459.06 648.51,456.75 C648.86,453.44 648.96,453.33 650.08,455.26 C650.65,456.22 650.83,457.46 650.50,458.01 ZM 563.00 709.53 C563.00,711.15 564.56,711.52 565.44,710.10 C565.74,709.61 565.32,708.95 564.49,708.64 C563.59,708.29 563.00,708.64 563.00,709.53 Z" fill="rgb(79,4,50)"/>
<path d="M 0.00 965.50 C0.00,871.67 0.25,849.00 1.28,849.00 C1.29,849.00 1.30,849.00 1.31,849.00 C0.34,849.14 0.07,873.91 0.02,965.50 L 0.00 1006.79 L 0.00 965.50 Z" fill="rgb(76,27,67)"/>
<path d="M 197.25 862.34 C195.81,861.76 195.48,851.44 196.88,850.57 C197.36,850.28 198.53,847.66 199.47,844.77 C200.42,841.87 202.05,838.69 203.09,837.71 C204.14,836.73 205.03,835.38 205.07,834.71 C205.27,831.57 206.17,828.59 208.02,824.96 C209.31,822.43 209.81,820.10 209.41,818.50 C208.86,816.30 209.17,815.92 211.89,815.37 C214.64,814.82 215.00,814.36 215.00,811.34 C215.00,809.46 215.74,806.80 216.65,805.41 C217.89,803.52 218.01,802.61 217.15,801.75 C214.99,799.59 215.81,796.02 218.73,794.91 C223.20,793.21 224.57,789.98 220.49,790.76 C218.48,791.14 218.10,790.91 218.59,789.62 C219.18,788.08 220.38,787.55 222.41,787.93 C223.61,788.16 224.97,785.94 224.98,783.71 C224.99,782.72 225.94,780.64 227.10,779.08 C228.79,776.79 228.98,775.84 228.10,774.19 L 228.03 774.06 C227.41,772.90 227.06,772.25 227.18,771.70 C227.34,770.98 228.30,770.43 230.50,769.13 C233.78,767.20 234.00,766.74 234.00,761.93 C234.00,758.12 234.58,756.04 236.25,753.91 C237.49,752.33 239.46,749.79 240.62,748.26 C241.81,746.71 243.07,743.08 243.49,740.00 C243.90,736.97 244.68,733.65 245.22,732.61 C245.77,731.57 246.43,729.32 246.69,727.61 C246.96,725.90 248.20,723.60 249.46,722.50 C252.85,719.55 255.35,710.86 253.80,707.46 C252.52,704.65 252.54,704.62 258.41,701.51 C259.46,700.96 260.47,699.83 260.64,699.00 C261.70,694.06 263.68,688.09 264.67,686.89 C265.30,686.13 266.62,683.47 267.59,681.00 C268.57,678.53 269.76,676.23 270.26,675.89 C270.75,675.56 271.29,673.19 271.46,670.63 C271.64,668.07 272.31,665.33 272.96,664.55 C273.82,663.52 273.85,662.58 273.07,661.13 C272.48,660.03 272.00,658.93 272.00,658.69 C272.00,657.91 278.31,655.60 280.08,655.73 C281.46,655.83 281.65,655.34 281.07,653.18 C280.68,651.71 280.78,648.71 281.31,646.50 C281.83,644.30 282.19,640.20 282.12,637.38 C281.97,631.94 282.77,630.69 287.04,629.67 C289.13,629.17 289.63,628.41 289.83,625.39 C289.97,623.37 290.46,620.99 290.92,620.11 C291.38,619.22 291.61,617.15 291.42,615.50 C291.00,611.88 291.65,610.83 295.27,609.24 C298.23,607.94 300.00,604.55 300.00,600.16 C300.00,598.67 300.66,596.50 301.46,595.35 C302.27,594.20 302.67,593.00 302.35,592.68 C302.03,592.36 303.22,589.74 305.00,586.85 C308.81,580.65 311.00,574.85 311.00,570.93 C311.00,569.38 311.41,567.87 311.91,567.56 C312.40,567.25 312.60,566.19 312.35,565.21 C312.01,563.94 312.86,562.96 315.32,561.79 C318.21,560.41 318.67,559.74 318.25,557.54 C317.78,555.06 321.63,546.00 323.16,546.00 C323.53,546.00 323.70,544.90 323.55,543.55 C323.41,542.20 324.35,539.23 325.64,536.95 C326.94,534.66 328.00,532.23 328.00,531.53 C328.00,530.84 328.81,529.20 329.80,527.88 C332.11,524.82 332.01,523.59 329.24,521.01 C327.41,519.30 327.18,518.53 328.05,516.90 C328.78,515.53 329.73,515.10 331.05,515.52 C332.95,516.12 337.49,513.83 336.46,512.79 C335.48,511.81 341.10,496.52 343.06,494.84 C344.13,493.93 345.01,492.35 345.02,491.34 C345.03,489.32 347.02,483.27 348.36,481.18 C348.82,480.46 348.95,479.62 348.65,479.31 C348.34,479.01 348.75,478.11 349.55,477.31 C350.35,476.51 351.00,475.44 351.00,474.93 C351.00,473.41 348.78,474.34 346.56,476.77 C344.63,478.89 344.02,478.98 337.00,478.27 C329.61,477.51 329.50,477.46 329.17,474.50 C328.75,470.76 326.14,467.73 323.84,468.33 C321.42,468.96 318.53,466.65 319.29,464.70 C319.90,463.09 317.43,456.99 316.18,457.02 C315.80,457.02 314.84,457.45 314.03,457.96 C313.10,458.55 312.09,458.49 311.26,457.80 C310.19,456.91 310.26,456.38 311.60,454.89 C313.15,453.18 313.09,453.00 310.62,451.87 C309.18,451.22 308.00,450.37 308.00,450.00 C308.00,449.62 306.54,449.36 304.75,449.41 C302.00,449.49 301.46,449.12 301.21,447.00 C301.05,445.62 300.53,443.60 300.05,442.50 C299.57,441.40 298.93,439.71 298.62,438.75 C297.85,436.33 295.00,436.53 295.00,439.00 C295.00,440.10 294.55,441.00 294.00,441.00 C293.45,441.00 293.00,439.62 293.00,437.94 C293.00,436.25 292.57,435.15 292.04,435.47 C291.00,436.12 287.74,431.77 288.21,430.37 C288.64,429.08 287.72,428.79 285.68,429.57 C282.99,430.60 281.52,428.62 283.51,426.64 C284.41,425.74 285.00,424.97 284.82,424.93 C284.64,424.88 283.44,424.66 282.15,424.42 C280.85,424.18 278.65,423.08 277.26,421.99 C275.87,420.90 274.12,420.00 273.37,420.00 C272.61,420.00 272.00,419.33 272.00,418.50 C272.00,417.67 272.89,417.00 274.00,417.00 C276.89,417.00 276.45,415.29 273.12,413.56 C271.54,412.74 269.93,411.27 269.55,410.29 C268.90,408.59 268.82,408.59 267.88,410.25 C266.49,412.73 263.00,412.53 263.00,409.97 C263.00,408.85 263.71,407.66 264.59,407.33 C265.92,406.82 265.75,406.33 263.59,404.32 C262.16,403.00 261.00,401.49 261.00,400.96 C261.00,399.23 258.02,399.95 256.24,402.11 C255.28,403.27 253.96,404.79 253.30,405.49 C252.64,406.19 252.30,407.04 252.55,407.38 C252.80,407.72 252.73,407.81 252.41,407.57 C251.22,406.72 245.96,410.76 243.07,414.75 C241.44,416.99 239.30,419.09 238.31,419.41 C237.31,419.73 235.41,421.60 234.08,423.56 C232.75,425.52 230.46,427.74 229.00,428.50 C227.55,429.25 225.14,431.70 223.66,433.93 C222.18,436.17 220.32,438.00 219.53,438.00 C218.74,438.00 216.76,439.95 215.12,442.33 C212.94,445.50 210.65,447.30 206.57,449.06 C203.51,450.38 201.00,451.81 201.00,452.23 C201.00,454.80 192.51,450.49 188.50,445.89 C184.18,440.93 175.41,432.83 173.24,431.78 C170.39,430.41 168.60,425.24 170.13,422.83 C170.59,422.10 170.98,419.96 170.98,418.08 C170.99,416.20 171.29,414.96 171.65,415.31 C172.00,415.67 174.07,414.96 176.24,413.74 C179.81,411.74 180.14,411.23 179.67,408.33 C179.12,404.96 180.14,403.47 183.42,402.86 C184.50,402.66 185.75,401.19 186.30,399.50 C187.46,395.88 189.83,393.00 191.64,393.00 C192.63,393.00 192.48,392.20 191.08,389.90 C189.79,387.76 189.42,385.97 189.90,384.15 C190.29,382.69 190.58,376.71 190.55,370.86 C190.51,361.75 190.22,359.90 188.55,358.05 C187.27,356.64 186.68,354.72 186.83,352.47 C187.04,349.40 186.67,348.86 183.31,347.27 C180.34,345.87 179.38,344.72 178.68,341.71 C177.69,337.51 178.60,329.07 180.06,328.88 C180.58,328.81 181.45,328.64 182.00,328.50 C182.55,328.36 183.46,328.19 184.01,328.12 C184.57,328.06 185.85,326.66 186.85,325.01 C187.84,323.37 190.50,320.70 192.75,319.07 C194.99,317.44 197.11,315.24 197.45,314.17 C197.79,313.10 199.81,311.07 201.95,309.65 C204.09,308.23 206.13,306.15 206.49,305.03 C206.85,303.90 208.49,302.28 210.14,301.43 C211.79,300.57 214.07,298.29 215.22,296.36 C216.36,294.42 218.35,292.44 219.64,291.95 C220.92,291.46 223.22,289.29 224.74,287.12 C226.26,284.96 228.74,282.44 230.26,281.53 C231.77,280.62 233.69,278.56 234.53,276.94 C235.37,275.32 236.49,274.00 237.03,274.00 C238.26,274.00 254.00,258.31 254.00,257.08 C254.00,256.58 255.57,255.19 257.49,254.01 C259.40,252.82 261.73,250.57 262.65,249.01 C263.58,247.45 265.38,245.69 266.66,245.11 C267.94,244.53 270.22,242.28 271.74,240.12 C273.26,237.96 275.74,235.44 277.26,234.53 C278.78,233.62 280.68,231.30 281.49,229.37 C282.84,226.15 283.24,225.90 286.72,226.19 C289.89,226.45 290.56,226.91 290.85,229.00 C291.32,232.41 292.52,233.65 296.02,234.35 C298.29,234.81 299.00,235.50 299.00,237.25 C299.00,240.65 301.64,243.83 304.76,244.18 C306.37,244.37 307.52,245.12 307.54,246.00 C307.62,249.17 311.11,252.88 314.32,253.19 C316.78,253.43 317.60,254.06 318.00,256.00 C318.69,259.45 319.91,261.07 324.18,264.26 C326.21,265.76 328.15,267.90 328.50,269.01 C328.85,270.12 330.42,271.68 331.97,272.49 C333.53,273.29 335.76,275.49 336.92,277.37 C338.08,279.25 340.14,281.07 341.50,281.41 C342.85,281.75 344.63,283.32 345.45,284.90 C346.26,286.47 348.19,288.83 349.74,290.13 C351.28,291.43 353.29,293.56 354.19,294.86 C356.68,298.41 354.42,303.53 347.34,310.40 C340.31,317.22 316.91,340.41 315.50,341.95 C314.95,342.55 313.04,344.39 311.25,346.03 C308.15,348.88 308.06,349.17 309.29,352.26 C310.07,354.21 311.86,356.10 313.77,357.00 C315.52,357.83 316.97,359.10 316.98,359.83 C317.00,361.04 325.70,370.75 330.42,374.83 C332.68,376.78 335.58,379.72 338.79,383.31 C340.05,384.72 342.04,386.01 343.20,386.19 C344.37,386.36 345.44,387.35 345.59,388.40 C345.74,389.45 348.37,392.75 351.43,395.74 C354.50,398.73 357.00,401.57 357.00,402.07 C357.00,402.56 358.74,403.85 360.88,404.94 C363.01,406.02 365.02,407.61 365.35,408.47 C365.68,409.32 367.08,410.54 368.47,411.17 C369.86,411.80 371.00,412.83 371.00,413.46 C371.00,414.09 371.52,415.12 372.16,415.76 C373.05,416.65 373.66,416.29 374.71,414.26 C375.47,412.80 376.02,410.68 375.93,409.55 C375.67,406.11 375.97,403.64 376.57,404.24 C376.88,404.55 378.29,404.21 379.70,403.48 C381.10,402.75 382.81,402.37 383.50,402.64 C383.96,402.82 384.49,402.65 384.89,402.25 C374.77,427.13 363.86,453.95 354.29,477.50 C351.83,483.55 341.93,507.85 332.29,531.50 C322.65,555.15 310.38,585.30 305.02,598.50 C299.66,611.70 286.94,642.97 276.75,668.00 C213.72,822.71 199.00,858.98 199.00,859.53 L 199.00 859.54 C199.00,859.86 199.00,860.14 199.10,860.18 C199.63,860.42 202.79,854.93 221.93,821.68 L 222.04 821.50 C235.37,798.35 247.29,777.68 278.00,724.50 C293.56,697.55 312.36,664.92 319.78,652.00 C327.20,639.08 336.52,622.88 340.49,616.00 C344.47,609.12 351.99,596.08 357.21,587.00 C362.44,577.92 375.15,555.88 385.46,538.00 C395.77,520.12 411.22,493.35 419.78,478.50 C428.35,463.65 440.84,442.05 447.53,430.50 C454.23,418.95 469.51,392.40 481.48,371.50 C493.45,350.60 503.60,333.11 504.04,332.64 C505.01,331.58 506.05,333.24 524.00,364.50 C544.81,400.73 620.19,531.55 648.47,580.50 C661.81,603.60 676.23,628.58 680.50,636.00 C684.77,643.42 697.74,665.92 709.31,686.00 C720.89,706.08 735.15,730.83 741.01,741.00 C746.87,751.17 762.17,777.72 775.02,800.00 C787.86,822.28 800.87,844.88 803.93,850.24 C809.53,860.04 812.43,863.22 809.40,856.25 C807.89,852.78 788.85,806.14 771.53,763.50 C761.67,739.21 738.55,682.40 734.50,672.50 C732.70,668.10 727.39,655.05 722.69,643.50 C718.00,631.95 710.48,613.50 706.00,602.50 C701.51,591.50 693.65,572.15 688.52,559.50 C683.40,546.85 677.09,531.33 674.50,525.00 C671.92,518.67 666.97,506.52 663.51,498.00 C660.05,489.48 652.61,471.25 646.99,457.50 C641.37,443.75 632.29,421.48 626.81,408.00 C605.12,354.62 599.70,341.30 587.17,310.50 C562.45,249.74 563.07,250.98 552.97,241.63 C545.77,234.97 538.94,230.99 528.50,227.38 C521.23,224.87 519.17,224.61 506.00,224.57 C489.18,224.52 483.25,225.79 470.11,232.23 C460.05,237.17 450.14,246.49 445.33,255.54 C443.59,258.82 438.80,269.83 434.68,280.00 C430.57,290.17 423.06,308.62 418.00,321.00 C413.59,331.77 400.46,364.00 385.51,400.74 C385.51,400.30 385.31,400.00 384.97,400.00 C383.76,400.00 383.68,392.74 384.88,391.45 C385.36,390.93 386.04,388.20 386.39,385.39 C386.88,381.45 386.68,379.98 385.52,379.01 C383.04,376.96 383.75,376.13 388.25,375.81 C392.49,375.50 392.50,375.49 393.25,370.75 C395.63,355.68 395.23,356.75 399.00,355.50 C402.26,354.41 402.56,353.96 403.30,348.92 C403.74,345.94 404.20,341.32 404.32,338.65 C404.53,334.33 405.01,333.39 408.70,330.15 C411.54,327.65 412.84,325.71 412.81,324.00 C412.76,320.73 417.28,310.97 419.97,308.53 C421.53,307.11 421.92,305.91 421.47,303.88 C421.04,301.91 421.42,300.58 422.80,299.20 C424.52,297.48 424.59,296.93 423.42,294.14 C422.17,291.17 422.23,290.98 424.55,290.40 C425.90,290.06 427.00,289.08 427.00,288.22 C427.00,287.36 427.62,285.95 428.37,285.08 C430.56,282.55 434.13,271.92 434.18,267.73 C434.22,264.82 434.82,263.51 436.63,262.33 C438.20,261.30 439.23,259.42 439.64,256.84 C440.00,254.60 441.03,252.52 442.05,251.97 C443.03,251.45 444.13,249.70 444.48,248.08 C444.84,246.47 446.24,244.42 447.61,243.52 C448.97,242.63 450.51,240.78 451.03,239.42 C451.55,238.06 452.76,236.66 453.73,236.31 C454.71,235.96 456.74,234.82 458.25,233.77 C460.58,232.16 460.83,231.55 459.91,229.83 C458.16,226.55 460.33,225.18 463.91,227.29 C467.69,229.52 469.00,229.45 469.00,227.00 C469.00,225.90 469.34,224.97 469.75,224.94 C475.22,224.52 484.94,224.70 486.50,225.25 C487.60,225.64 489.16,225.54 489.96,225.04 C491.22,224.25 491.19,223.86 489.71,222.23 C487.58,219.88 487.49,217.00 489.55,217.00 C490.40,217.00 492.31,217.62 493.80,218.38 C495.28,219.13 497.85,219.56 499.50,219.33 C510.54,217.77 520.00,219.77 520.00,223.65 C520.00,224.93 520.28,225.01 521.46,224.03 C522.30,223.34 524.10,223.08 525.71,223.43 C527.24,223.77 530.08,224.24 532.00,224.48 C533.92,224.72 536.25,225.83 537.16,226.96 C538.07,228.08 539.51,229.00 540.36,229.00 C541.20,229.00 543.11,230.12 544.59,231.50 C546.37,233.14 548.45,234.00 550.68,234.00 C552.99,234.00 554.27,234.55 554.71,235.75 C555.06,236.71 555.95,237.86 556.67,238.30 C557.40,238.74 558.00,239.78 558.00,240.61 C558.00,241.44 558.41,241.87 558.91,241.56 C559.40,241.25 559.58,240.10 559.29,239.00 C558.71,236.77 559.97,236.37 561.80,238.20 C563.40,239.80 563.36,242.32 561.75,241.41 C560.75,240.85 560.75,240.98 561.75,242.05 C562.44,242.79 563.00,244.85 563.00,246.63 C563.00,249.10 563.73,250.38 566.09,252.06 C568.51,253.79 569.08,254.82 568.70,256.79 C568.40,258.36 568.87,260.02 569.96,261.19 C570.92,262.21 572.26,264.96 572.95,267.28 C574.51,272.51 575.68,274.00 578.25,274.00 C580.03,274.00 580.18,274.45 579.61,278.01 C579.18,280.75 579.43,282.74 580.41,284.26 C581.20,285.49 582.16,288.67 582.55,291.33 C583.32,296.66 584.83,297.86 588.60,296.14 C590.64,295.21 591.18,295.30 591.69,296.64 C592.04,297.54 591.79,299.00 591.15,299.89 C588.96,302.93 588.69,304.27 589.88,306.18 C590.53,307.23 591.31,309.98 591.61,312.29 C591.96,315.01 592.98,317.21 594.49,318.50 C595.88,319.68 597.01,321.93 597.24,324.00 C597.46,325.92 598.14,328.62 598.75,330.00 C599.36,331.38 600.13,333.74 600.45,335.25 C600.93,337.49 601.58,338.00 603.95,338.00 C606.69,338.00 610.00,340.16 610.00,341.95 C610.00,342.39 609.33,343.31 608.51,343.99 C606.90,345.33 607.16,347.81 609.59,354.27 C610.36,356.34 611.00,359.29 611.00,360.82 C611.00,364.18 612.63,366.00 615.64,366.00 C618.56,366.00 619.37,367.43 617.84,369.89 C616.88,371.42 616.87,372.43 617.81,374.47 C618.46,375.91 619.00,378.34 619.00,379.87 C619.00,382.42 623.00,387.67 624.10,386.56 C624.35,386.32 625.27,388.10 626.15,390.53 C627.11,393.21 627.29,394.68 626.62,394.27 C626.00,393.89 626.29,394.78 627.25,396.25 C628.37,397.97 629.00,400.87 629.00,404.34 C629.00,410.53 629.82,411.52 635.57,412.25 C639.16,412.70 639.91,412.42 641.93,409.88 C643.19,408.30 644.77,407.00 645.44,407.00 C646.95,407.00 651.00,402.78 651.00,401.20 C651.00,400.55 652.77,398.91 654.93,397.54 C657.09,396.18 659.46,393.82 660.19,392.29 C660.92,390.77 662.79,388.91 664.35,388.16 C665.91,387.41 668.08,385.28 669.18,383.41 C670.29,381.55 672.36,379.45 673.81,378.76 C675.25,378.07 677.46,375.96 678.73,374.08 C679.99,372.20 682.35,369.86 683.96,368.88 C685.57,367.90 687.48,365.96 688.21,364.58 C688.93,363.19 691.67,360.69 694.30,359.03 C696.92,357.37 699.32,355.33 699.64,354.50 C700.53,352.17 699.13,347.99 697.22,347.27 C696.27,346.91 686.20,337.37 674.83,326.06 C663.46,314.75 653.33,304.78 652.33,303.91 C651.32,303.03 649.08,300.67 647.34,298.66 C645.59,296.65 644.00,295.00 643.80,295.00 C643.21,295.00 623.00,274.90 623.00,274.32 C623.00,274.03 622.25,272.21 621.32,270.27 C619.72,266.89 619.73,266.67 621.57,265.29 C622.93,264.28 624.54,264.08 627.00,264.60 C628.92,265.01 632.86,265.28 635.75,265.20 C638.93,265.11 641.00,265.48 641.00,266.13 C641.00,266.73 641.67,266.95 642.50,266.64 C643.33,266.32 644.00,266.48 644.00,267.00 C644.00,269.03 649.06,270.72 661.00,272.69 C662.92,273.00 665.39,273.88 666.47,274.63 C667.56,275.38 669.19,276.00 670.11,276.00 C671.02,276.00 672.44,277.02 673.26,278.27 C674.42,280.05 675.58,280.51 678.56,280.37 C680.65,280.27 683.52,280.66 684.93,281.23 C686.34,281.81 689.07,282.56 690.99,282.90 C693.39,283.34 694.59,284.15 694.85,285.52 C695.38,288.41 696.96,290.00 699.29,290.00 C700.42,290.00 702.19,290.77 703.23,291.71 C704.27,292.65 706.37,293.32 707.90,293.20 C710.60,293.00 713.89,295.38 713.83,297.50 C713.79,299.36 720.47,302.29 725.00,302.39 C729.01,302.49 729.48,302.74 729.27,304.70 C728.99,307.41 734.00,311.27 737.25,310.85 C740.36,310.45 742.00,311.69 742.00,314.44 C742.00,315.86 743.04,317.45 744.67,318.52 C746.14,319.49 749.05,322.01 751.13,324.14 C753.22,326.26 755.81,328.00 756.90,328.00 C759.34,328.00 760.35,329.52 760.44,333.34 C760.48,335.19 761.24,336.68 762.50,337.38 C767.48,340.15 771.00,343.25 771.00,344.85 C771.00,345.92 772.28,347.06 774.32,347.80 C776.50,348.59 778.13,350.11 779.07,352.25 C779.91,354.17 781.35,355.62 782.58,355.80 C783.90,355.99 785.30,357.55 786.42,360.08 C787.38,362.27 789.22,364.75 790.49,365.59 C791.77,366.42 793.10,368.27 793.46,369.70 C793.82,371.13 795.66,374.19 797.56,376.50 C799.45,378.82 801.00,381.19 801.00,381.78 C801.00,382.38 802.35,383.83 804.00,385.00 C805.95,386.39 807.00,388.00 807.00,389.62 C807.00,392.55 809.40,397.59 812.31,400.77 C813.45,402.02 814.49,403.60 814.61,404.27 C815.43,408.90 818.58,414.84 821.66,417.58 C825.26,420.78 825.29,420.87 825.48,429.42 C825.68,438.59 826.49,440.16 831.75,441.60 C833.92,442.19 834.94,444.00 833.11,444.00 C831.52,444.00 831.02,446.95 832.17,449.48 C832.79,450.83 833.58,451.76 833.93,451.54 C834.83,450.99 835.49,459.99 835.26,469.66 C835.11,476.03 835.39,477.93 836.53,478.37 C838.80,479.25 838.26,481.90 835.68,482.54 C833.04,483.21 825.37,478.73 824.51,476.02 C824.22,475.12 820.52,471.26 816.29,467.44 C807.26,459.30 795.02,446.82 795.01,445.75 C795.00,445.34 794.33,445.00 793.50,445.00 C792.67,445.00 792.00,444.66 791.99,444.25 C791.99,443.84 790.53,442.07 788.74,440.33 C786.96,438.58 782.12,433.71 778.00,429.51 C771.36,422.74 754.06,405.51 750.00,401.61 C748.69,400.36 748.16,400.46 745.84,402.46 C744.38,403.72 742.46,406.15 741.57,407.86 C740.68,409.58 738.17,411.89 735.98,413.01 C733.79,414.13 732.00,415.63 732.00,416.35 C732.00,417.91 727.84,422.00 726.25,422.00 C725.64,422.00 723.85,423.91 722.28,426.25 C720.71,428.59 718.21,431.08 716.73,431.80 C715.07,432.60 713.72,434.29 713.22,436.21 C712.41,439.35 711.81,439.87 706.75,441.87 C704.82,442.64 704.00,443.67 704.00,445.36 C704.00,448.13 702.27,449.83 698.38,450.87 C696.54,451.37 695.32,452.59 694.68,454.55 C693.35,458.69 692.10,460.00 689.50,460.00 C686.81,460.00 685.32,461.60 684.85,465.00 C684.60,466.81 683.36,468.01 680.38,469.36 C677.68,470.59 675.79,472.30 674.88,474.36 C673.76,476.90 672.64,477.69 669.00,478.50 C662.08,480.04 659.87,482.19 663.91,483.47 C666.60,484.33 666.98,486.02 665.46,490.45 C664.05,494.55 664.34,495.27 673.82,511.04 C675.15,513.25 676.02,516.52 676.13,519.75 C676.23,522.60 676.69,524.69 677.16,524.40 C677.62,524.12 678.00,524.36 678.00,524.94 C678.00,525.52 678.83,526.00 679.83,526.00 C682.51,526.00 682.92,526.80 681.96,530.14 C681.32,532.38 681.57,534.05 682.99,536.82 C684.02,538.84 685.18,542.30 685.56,544.50 C685.93,546.70 687.26,549.62 688.49,551.00 C690.71,553.46 693.34,561.00 694.47,568.15 C695.11,572.16 696.32,573.04 700.18,572.31 C702.31,571.90 702.85,572.27 703.41,574.51 C703.86,576.30 703.54,578.06 702.44,579.73 C701.16,581.68 701.07,582.42 702.04,583.02 C702.72,583.45 703.56,585.53 703.90,587.65 C704.48,591.24 704.77,591.52 708.26,591.81 C710.70,592.01 712.00,592.62 712.00,593.56 C712.00,594.35 711.62,595.00 711.16,595.00 C709.95,595.00 707.86,599.97 708.59,601.14 C708.95,601.74 709.92,601.48 711.00,600.50 C713.28,598.44 714.54,600.12 712.95,603.10 C712.09,604.70 712.09,606.27 712.97,609.40 C713.62,611.70 714.06,614.01 713.95,614.54 C713.53,616.70 714.14,617.58 717.01,618.84 C718.66,619.57 719.76,620.57 719.46,621.07 C719.16,621.56 719.41,622.89 720.02,624.03 C720.62,625.17 721.35,627.95 721.62,630.21 C722.20,635.05 724.32,639.53 726.42,640.33 C727.24,640.64 728.83,642.71 729.95,644.91 C732.05,649.03 732.73,651.68 731.00,649.00 C729.50,646.68 729.72,649.50 731.50,655.37 C732.31,658.04 732.70,660.67 732.37,661.21 C732.04,661.75 733.05,663.50 734.63,665.10 C739.45,669.99 741.04,671.56 741.44,673.39 C741.63,674.29 741.54,675.26 741.39,676.72 L 741.36 677.02 C740.82,682.40 741.94,684.36 745.69,684.63 C747.24,684.75 748.79,684.87 749.15,684.92 C749.51,684.96 749.78,686.69 749.77,688.75 C749.72,693.31 750.90,711.30 751.25,711.42 C755.06,712.68 757.55,714.98 757.83,717.53 C758.01,719.16 758.57,720.93 759.08,721.45 C759.58,721.97 760.00,723.72 760.00,725.34 C760.00,726.96 761.97,732.38 764.37,737.39 C770.54,750.24 771.02,751.64 770.39,754.80 C769.93,757.11 770.28,757.81 772.36,758.76 C775.98,760.40 777.97,763.96 778.69,770.05 C779.16,773.97 780.06,776.13 782.16,778.33 C784.60,780.88 785.55,783.38 785.13,786.20 C785.08,786.59 785.92,788.99 787.02,791.54 C788.11,794.08 789.00,797.49 789.00,799.11 C789.00,800.77 789.64,802.31 790.45,802.62 C791.25,802.93 792.65,805.13 793.56,807.52 C794.48,809.92 795.85,812.11 796.61,812.40 C797.56,812.77 798.00,814.64 798.00,818.27 C798.00,824.30 799.15,826.00 803.23,826.00 C807.01,826.00 807.83,828.49 805.02,831.47 L 802.80 833.85 L 804.90 835.64 C806.05,836.63 807.01,838.36 807.03,839.47 C807.05,840.59 807.72,842.37 808.53,843.44 C809.34,844.51 810.00,846.01 810.00,846.78 C810.00,847.55 810.90,849.33 812.00,850.73 C813.35,852.44 814.00,854.78 814.00,857.93 C814.00,862.53 813.95,862.59 810.57,862.82 C807.70,863.02 806.86,862.56 805.36,860.03 C804.37,858.36 803.25,857.00 802.85,857.00 C802.46,857.00 800.48,853.51 798.45,849.25 C796.42,844.99 793.66,840.60 792.33,839.50 C790.99,838.40 789.78,836.83 789.65,836.00 C789.51,835.17 788.86,833.52 788.20,832.32 C787.54,831.11 787.00,829.46 787.00,828.63 C787.00,827.81 785.65,826.17 784.00,825.00 C782.35,823.83 781.00,822.33 780.99,821.68 C780.99,821.03 780.38,819.33 779.63,817.91 C778.89,816.48 777.99,813.78 777.64,811.91 C777.19,809.56 776.07,807.98 774.03,806.82 C772.27,805.81 770.82,804.00 770.46,802.32 C769.02,795.72 766.15,793.25 763.27,796.13 C762.64,796.76 761.43,796.99 760.57,796.66 C759.19,796.14 759.27,795.48 761.25,791.37 C762.83,788.09 763.14,786.57 762.31,786.28 C761.66,786.06 760.15,782.96 758.96,779.39 C757.13,773.90 756.40,772.83 754.11,772.37 C752.25,772.00 751.37,771.16 751.26,769.67 C750.85,763.81 749.78,761.41 746.71,759.47 C744.25,757.91 743.50,756.73 743.50,754.40 C743.50,752.73 742.71,750.57 741.75,749.61 C740.79,748.65 740.00,746.36 740.00,744.54 C740.00,741.61 739.54,741.03 736.12,739.67 C732.89,738.37 732.13,737.51 731.57,734.50 C731.19,732.51 730.01,730.01 728.94,728.94 C727.87,727.87 727.00,726.59 727.00,726.08 C727.00,724.86 723.83,718.95 722.25,717.22 C721.56,716.47 721.00,714.75 721.00,713.40 C721.00,711.73 720.23,710.66 718.60,710.04 C715.71,708.94 715.31,708.35 713.03,701.69 C711.68,697.75 710.50,696.14 708.15,695.00 C705.69,693.81 705.04,692.86 705.02,690.45 C705.01,688.77 704.47,686.87 703.81,686.21 C703.16,685.56 702.48,684.08 702.30,682.91 C702.13,681.75 700.41,678.96 698.49,676.72 C696.57,674.48 695.00,672.03 695.00,671.28 C695.00,668.77 690.97,662.00 689.48,662.00 C688.67,662.00 688.00,662.44 688.00,662.97 C688.00,663.50 687.27,663.66 686.38,663.32 C685.10,662.82 684.89,661.80 685.37,658.29 C686.03,653.49 684.27,647.81 681.67,646.35 C678.93,644.82 675.15,638.21 674.79,634.31 C674.50,631.12 673.91,630.26 671.18,629.05 C668.40,627.82 668.01,627.23 668.51,624.96 C668.89,623.22 668.56,621.88 667.54,621.04 C666.70,620.33 666.00,618.86 666.00,617.76 C666.00,616.66 664.19,613.91 661.98,611.63 C659.76,609.36 656.95,605.47 655.73,603.00 C654.20,599.91 652.87,598.50 651.50,598.50 C649.84,598.50 649.45,597.74 649.21,594.00 C648.82,588.01 646.55,583.37 643.22,581.78 C641.16,580.79 640.50,579.75 640.50,577.49 C640.50,575.81 639.73,573.93 638.75,573.19 C637.71,572.41 637.00,570.57 637.00,568.62 C637.00,566.44 636.18,564.58 634.55,563.05 C633.21,561.78 631.84,559.54 631.52,558.07 C631.19,556.59 630.04,554.75 628.96,553.97 C627.88,553.20 627.00,551.56 627.00,550.33 C627.00,547.23 624.00,545.69 621.81,547.67 C620.89,548.51 619.65,548.90 619.06,548.54 C617.65,547.67 617.70,543.70 619.14,542.26 C620.00,541.40 619.97,540.34 619.01,538.03 C618.31,536.34 617.39,534.74 616.95,534.47 C615.29,533.45 611.02,536.05 609.48,539.03 C608.60,540.75 606.53,542.71 604.89,543.40 C603.23,544.10 601.16,546.17 600.21,548.08 C599.25,550.01 597.14,552.10 595.38,552.88 C593.59,553.66 591.66,555.59 590.88,557.38 C590.05,559.26 588.01,561.23 585.75,562.33 C583.69,563.34 582.00,564.73 582.00,565.43 C582.00,567.23 577.87,571.66 575.50,572.40 C574.40,572.75 572.83,574.48 572.00,576.26 C571.10,578.21 569.00,580.23 566.75,581.33 C564.69,582.34 563.00,583.78 563.00,584.54 C563.00,586.26 558.34,591.00 556.64,591.00 C555.94,591.00 554.63,592.56 553.72,594.46 C552.07,597.91 552.08,597.92 555.04,600.03 C556.67,601.19 566.71,610.88 577.35,621.57 C588.00,632.26 597.22,641.00 597.85,641.00 C598.48,641.00 599.00,641.53 599.00,642.18 C599.00,642.82 601.89,646.20 605.42,649.68 C610.45,654.63 612.49,656.00 614.86,656.00 C616.52,656.00 618.21,656.54 618.62,657.19 C619.99,659.41 619.15,691.17 617.61,695.50 C616.26,699.28 616.29,699.54 618.20,700.26 C619.92,700.90 620.03,701.26 618.92,702.60 C617.73,704.04 617.49,704.03 616.37,702.50 C614.52,699.96 609.19,701.39 608.37,704.65 C608.03,706.03 608.25,707.65 608.87,708.27 C610.30,709.70 610.34,713.00 608.93,713.00 C608.34,713.00 607.22,712.37 606.45,711.59 C604.90,710.05 601.81,710.48 598.32,712.73 C596.62,713.83 593.10,714.04 582.50,713.70 C569.20,713.27 564.56,712.12 567.85,710.09 C569.78,708.90 567.25,705.11 564.00,704.32 C562.62,703.99 561.06,703.47 560.53,703.16 C559.99,702.86 558.41,702.58 557.03,702.55 C554.93,702.51 554.45,701.96 554.19,699.32 C553.83,695.59 552.23,694.02 548.33,693.56 C546.77,693.38 545.16,693.18 544.75,693.11 C544.34,693.05 544.00,691.48 544.00,689.62 C544.00,685.70 542.68,684.31 538.50,683.84 C535.99,683.55 535.49,683.05 535.46,680.74 C535.40,677.22 532.68,674.50 529.21,674.50 C526.94,674.50 526.44,674.01 526.16,671.50 C525.98,669.85 525.35,667.93 524.77,667.23 C524.19,666.53 524.00,665.67 524.35,665.32 C525.09,664.58 523.17,662.00 521.88,662.00 C521.39,662.00 521.00,662.90 521.00,664.00 C521.00,665.11 520.33,666.00 519.50,666.00 C518.49,666.00 518.00,664.99 518.00,662.94 C518.00,661.26 517.60,660.13 517.11,660.43 C515.74,661.28 513.70,658.23 514.41,656.39 C515.11,654.54 513.25,651.73 511.89,652.57 C511.40,652.87 511.00,653.98 511.00,655.03 C511.00,656.28 510.50,656.75 509.56,656.39 C508.77,656.08 508.38,655.18 508.68,654.39 C508.99,653.59 508.13,651.93 506.76,650.65 C505.40,649.39 504.10,647.80 503.87,647.12 C503.20,645.09 500.36,646.87 497.34,651.23 C495.79,653.47 493.05,655.92 491.26,656.67 C489.47,657.41 488.00,658.68 488.00,659.47 C488.00,661.21 483.75,665.62 481.28,666.44 C480.30,666.76 478.83,668.48 478.00,670.26 C477.15,672.09 475.15,674.09 473.40,674.87 C471.69,675.62 469.50,677.58 468.53,679.22 C467.56,680.86 465.24,683.10 463.38,684.20 C461.52,685.30 460.00,686.81 460.00,687.55 C460.00,689.32 455.31,694.00 453.54,694.00 C452.78,694.00 451.34,695.68 450.33,697.73 C449.25,699.92 447.05,702.20 444.99,703.28 C443.06,704.28 440.71,706.45 439.76,708.09 C437.03,712.85 432.37,714.21 420.62,713.68 C409.41,713.17 405.44,711.74 402.93,707.28 C401.95,705.56 400.35,704.38 398.72,704.19 C396.68,703.95 395.58,702.79 393.80,698.98 C391.88,694.89 391.05,694.08 388.75,694.04 C385.48,693.99 385.16,692.07 388.01,689.49 C389.74,687.93 389.82,687.45 388.64,686.09 C386.88,684.05 386.90,681.02 388.67,681.70 C389.55,682.04 389.99,681.39 390.00,679.69 C390.13,683.10 390.97,686.56 392.52,689.66 C395.58,695.80 406.27,706.31 412.18,709.00 C417.90,711.59 426.15,711.56 432.00,708.93 C435.48,707.36 456.27,687.15 523.86,619.60 L 611.23 532.29 L 596.96 507.40 C589.11,493.70 582.08,481.83 581.33,481.02 C580.15,479.74 567.37,492.13 486.96,572.52 C424.31,635.16 393.31,666.83 391.98,669.57 C390.59,672.42 389.93,675.75 389.99,679.16 C389.89,677.80 389.36,677.00 388.52,677.00 C386.47,677.00 385.50,672.38 386.92,669.29 C387.56,667.88 389.19,665.85 390.54,664.79 C391.89,663.72 393.00,662.39 393.00,661.83 C393.00,661.26 395.70,658.12 398.99,654.85 C402.29,651.57 405.46,648.01 406.03,646.94 C406.60,645.87 407.62,644.97 408.29,644.94 C408.95,644.91 411.08,642.91 413.00,640.50 C414.92,638.09 416.95,636.09 417.50,636.06 C418.06,636.03 420.08,633.99 422.00,631.54 C423.93,629.08 425.79,627.06 426.15,627.04 C426.51,627.02 428.31,625.45 430.15,623.55 C433.21,620.39 441.09,612.44 449.26,604.26 C451.04,602.47 452.95,600.55 453.50,599.98 C454.05,599.42 456.00,597.57 457.83,595.89 C459.66,594.21 460.99,592.66 460.78,592.44 C460.57,592.23 458.23,591.85 455.58,591.59 C452.22,591.26 450.34,590.50 449.33,589.06 C447.50,586.45 446.00,586.42 446.00,589.00 C446.00,591.79 443.03,591.55 442.88,588.75 C442.82,587.51 442.83,586.13 442.91,585.68 C442.99,585.22 442.64,585.10 442.14,585.41 C440.71,586.30 438.71,583.23 439.28,581.04 C439.81,579.02 437.84,576.49 436.66,577.68 C436.30,578.04 436.00,579.14 436.00,580.14 C436.00,581.36 435.50,581.75 434.43,581.33 C433.32,580.91 433.04,580.00 433.47,578.28 C433.82,576.88 433.68,576.08 433.15,576.41 C431.72,577.29 429.70,574.24 430.28,572.04 C430.56,570.96 430.14,569.53 429.35,568.87 C428.17,567.90 427.79,568.08 427.33,569.84 C427.02,571.03 426.10,572.00 425.28,572.00 C424.41,572.00 424.01,571.41 424.33,570.59 C424.62,569.82 424.02,568.42 422.99,567.49 C421.96,566.55 420.97,564.38 420.81,562.65 C420.61,560.65 419.95,559.50 419.00,559.50 C418.17,559.50 417.50,560.06 417.50,560.75 C417.50,563.12 415.49,561.64 412.50,557.08 C410.26,553.66 408.87,552.50 407.00,552.50 C404.95,552.50 404.45,551.96 404.20,549.47 C404.04,547.80 403.10,546.00 402.13,545.47 C398.95,543.74 395.54,542.18 393.69,541.59 C391.23,540.81 392.53,539.00 395.56,539.00 C397.46,539.00 398.00,538.48 398.00,536.62 C398.00,535.31 397.38,533.73 396.63,533.11 C395.55,532.21 394.93,532.65 393.65,535.24 C392.77,537.03 392.04,538.08 392.02,537.58 C391.98,535.78 386.73,541.55 384.82,545.50 C381.34,552.67 379.04,556.48 377.52,557.60 C376.70,558.20 375.88,559.74 375.68,561.01 C375.49,562.28 374.29,564.16 373.02,565.18 C370.51,567.22 370.70,568.03 373.74,568.26 C376.96,568.50 375.34,572.00 372.01,572.00 C368.55,572.00 367.44,573.38 366.63,578.72 C365.86,583.80 362.96,589.94 361.32,589.98 C360.67,589.99 359.50,590.65 358.71,591.44 C356.76,593.38 353.74,602.88 354.46,604.76 C354.78,605.60 354.77,607.15 354.44,608.20 C353.95,609.72 353.23,609.99 350.98,609.50 C348.77,609.01 347.90,609.31 347.07,610.87 C346.48,611.97 346.00,613.62 346.00,614.54 C346.00,615.46 344.20,618.47 342.00,621.24 C339.80,624.00 338.00,626.73 338.00,627.30 C338.00,627.87 337.22,629.21 336.26,630.26 C334.61,632.08 334.61,632.24 336.26,633.45 C339.30,635.67 338.39,637.85 334.28,638.19 C330.81,638.48 330.42,638.84 328.71,643.50 C327.69,646.25 325.40,650.39 323.60,652.69 C320.69,656.45 319.40,660.17 317.42,670.66 C317.12,672.22 316.48,672.68 315.08,672.31 C312.78,671.71 309.70,676.80 309.58,681.40 C309.51,683.92 308.96,684.46 305.50,685.43 C301.83,686.46 301.47,686.87 301.19,690.33 C301.01,692.46 300.24,694.35 299.44,694.66 C298.53,695.01 298.00,696.64 298.00,699.08 C298.00,702.60 297.71,703.02 294.75,703.78 C291.81,704.54 291.47,705.02 291.19,708.79 C291.01,711.30 290.20,713.47 289.16,714.23 C287.13,715.73 281.00,724.87 280.99,726.42 C280.99,727.01 280.36,728.70 279.60,730.17 C278.40,732.45 278.41,733.23 279.62,735.57 C281.34,738.89 280.83,739.50 276.28,739.50 C273.00,739.50 272.72,739.74 272.36,742.93 C271.93,746.78 269.85,749.51 265.74,751.64 C263.52,752.78 263.02,753.67 263.21,756.12 C263.36,758.15 262.86,759.50 261.72,760.14 C260.77,760.67 260.00,762.17 260.00,763.47 C260.00,767.10 258.94,769.07 256.50,770.00 C254.99,770.57 253.82,772.36 252.90,775.48 C252.03,778.43 250.16,781.38 247.76,783.60 C245.69,785.51 243.99,787.85 243.97,788.79 C243.95,789.73 243.29,791.35 242.51,792.39 C241.45,793.78 241.35,794.78 242.12,796.22 C243.26,798.36 242.54,801.45 241.10,800.56 C239.26,799.42 237.04,801.29 234.82,805.84 C233.58,808.40 232.65,811.17 232.77,812.00 C233.07,814.02 232.00,815.32 228.97,816.65 C227.10,817.47 226.38,818.61 226.19,821.08 C226.05,822.91 225.05,825.24 223.97,826.24 C222.89,827.25 222.00,828.68 222.00,829.42 C222.00,830.15 221.26,831.37 220.35,832.13 C219.43,832.88 218.08,834.85 217.34,836.50 C216.59,838.15 215.00,840.73 213.81,842.23 C211.92,844.61 211.80,845.27 212.92,847.35 C215.03,851.30 213.98,853.50 209.98,853.50 C206.79,853.50 206.47,853.77 206.19,856.74 C205.74,861.36 201.46,864.04 197.25,862.34 ZM 301.26 435.08 C324.49,458.50 343.92,477.59 344.44,477.52 C345.39,477.37 346.55,474.75 356.00,451.50 C358.90,444.35 363.06,434.27 365.23,429.09 L 369.18 419.69 L 334.84 385.34 L 300.51 351.00 L 326.50 325.00 L 352.49 299.00 L 319.50 266.00 C301.36,247.85 286.06,233.00 285.50,233.00 C284.95,233.00 261.16,256.33 232.65,284.85 L 180.81 336.70 L 185.30 343.26 C192.28,353.45 194.27,359.61 194.77,372.58 C195.09,380.64 194.77,385.40 193.60,390.08 C191.34,399.11 185.01,411.44 179.05,418.47 L 173.97 424.45 L 187.23 437.73 L 200.48 451.01 L 229.75 421.75 L 259.01 392.50 ZM 792.50 437.00 C815.60,460.10 834.66,479.00 834.86,479.00 C836.42,479.00 830.79,456.35 825.18,440.00 C812.74,403.80 793.36,372.10 766.69,344.35 C734.02,310.36 692.96,285.98 647.30,273.47 C640.44,271.58 632.50,269.76 629.66,269.41 L 624.50 268.78 L 707.49 352.00 L 673.67 385.83 L 639.85 419.66 L 651.68 448.82 C658.18,464.86 663.95,477.99 664.50,477.99 C665.06,478.00 684.18,459.33 707.00,436.50 C729.82,413.67 748.95,395.00 749.50,395.00 C750.05,395.00 769.40,413.90 792.50,437.00 ZM 506.43 546.85 C507.82,546.21 509.23,544.86 509.55,543.85 C509.87,542.83 510.50,542.00 510.95,542.00 C511.60,542.00 518.11,535.69 528.72,524.76 C529.39,524.07 531.75,521.70 533.97,519.50 C536.18,517.30 537.99,515.16 537.99,514.75 C538.00,514.34 538.56,514.00 539.25,514.00 C539.94,514.00 542.08,511.99 544.00,509.54 C545.93,507.08 547.79,505.06 548.15,505.04 C548.70,505.01 552.07,501.75 556.68,496.77 C557.32,496.07 560.70,492.70 564.18,489.27 C567.65,485.85 571.56,481.91 572.85,480.52 C574.15,479.14 576.06,477.94 577.10,477.88 C579.34,477.73 579.94,477.57 582.19,476.58 C583.74,475.89 583.71,475.54 581.83,472.17 C578.51,466.20 577.92,465.72 576.44,467.74 C575.36,469.20 574.91,469.27 573.82,468.18 C572.73,467.09 572.80,466.64 574.25,465.57 C576.62,463.82 576.45,462.33 573.50,458.82 C572.12,457.18 571.00,455.03 571.00,454.02 C571.00,453.00 569.47,451.29 567.50,450.13 C565.58,449.00 563.94,447.38 563.88,446.53 C563.81,445.69 563.66,444.66 563.55,444.25 C563.44,443.84 562.99,441.33 562.55,438.68 C561.95,435.08 561.20,433.65 559.58,433.03 C556.95,432.03 555.49,430.31 554.48,427.00 C554.06,425.62 551.74,422.25 549.33,419.50 C545.33,414.93 544.43,412.98 542.58,404.75 C542.16,402.89 541.32,402.00 540.00,402.00 C538.69,402.00 537.82,401.09 537.38,399.25 C537.02,397.74 536.14,395.38 535.43,394.00 C534.72,392.62 533.86,390.23 533.53,388.69 C533.12,386.77 532.02,385.55 530.07,384.88 C527.93,384.13 527.35,383.40 527.72,381.94 C528.00,380.88 527.50,378.48 526.62,376.60 C525.73,374.73 525.00,372.45 525.00,371.54 C525.00,370.63 524.55,370.16 524.00,370.50 C523.45,370.84 523.00,370.61 523.00,370.00 C523.00,369.39 522.55,369.16 522.00,369.50 C521.45,369.84 521.00,369.71 521.00,369.21 C521.00,368.71 520.10,367.27 519.00,366.00 C517.90,364.73 517.00,362.72 517.00,361.54 C517.00,358.36 514.89,356.17 511.50,355.81 C509.07,355.56 508.44,354.98 508.18,352.75 C508.00,351.12 508.35,350.00 509.05,350.00 C509.84,350.00 509.70,349.19 508.62,347.54 C507.73,346.18 507.00,344.15 507.00,343.04 C507.00,341.92 506.58,341.00 506.06,341.00 C504.61,341.00 503.84,342.78 504.98,343.49 C507.06,344.77 506.05,346.88 503.58,346.43 C498.92,345.58 495.55,351.09 496.50,358.01 L 497.17 362.85 L 494.17 362.38 C490.71,361.83 488.01,364.71 487.99,368.97 C487.98,370.50 486.39,373.25 483.99,375.92 C481.79,378.35 480.00,380.68 480.00,381.09 C480.00,381.51 478.85,383.21 477.45,384.88 C474.97,387.82 474.95,387.99 476.62,390.54 C478.02,392.68 478.09,393.33 477.01,393.99 C476.28,394.45 475.07,394.58 474.33,394.30 C472.29,393.51 470.00,395.91 470.00,398.82 C470.00,400.24 468.81,402.63 467.33,404.18 C464.81,406.80 464.76,407.07 466.33,408.81 C468.38,411.08 467.45,412.31 464.76,410.87 C462.66,409.75 460.80,410.78 460.43,413.27 C460.20,414.86 454.69,426.25 451.90,430.91 C450.68,432.95 450.09,435.21 450.42,436.54 C451.06,439.11 449.58,440.65 446.00,441.15 C443.10,441.56 442.04,442.71 442.02,445.48 C442.01,446.57 441.03,449.81 439.84,452.68 C438.30,456.40 436.87,458.23 434.84,459.07 C432.02,460.23 431.34,462.46 431.97,468.39 C432.08,469.43 431.01,471.29 429.58,472.52 C427.60,474.22 427.29,474.97 428.24,475.70 C430.06,477.08 436.61,480.00 437.90,480.00 C438.51,480.00 439.00,480.64 439.00,481.42 C439.00,483.67 443.85,488.84 446.28,489.18 C447.68,489.38 448.62,490.32 448.82,491.72 C449.16,494.13 454.66,499.33 455.99,498.50 C456.45,498.22 457.80,500.03 459.01,502.51 C460.21,505.00 462.07,507.50 463.15,508.08 C464.22,508.65 473.74,517.87 484.30,528.56 C494.86,539.24 503.59,547.99 503.70,547.99 C503.81,548.00 505.04,547.48 506.43,546.85 ZM 577.50 709.08 C583.32,711.81 591.86,711.61 597.78,708.60 C603.05,705.93 613.75,695.32 616.46,690.08 C617.43,688.21 618.45,684.14 618.73,681.05 C619.68,670.53 618.60,669.09 583.47,633.97 L 552.00 602.51 L 531.25 623.25 L 510.51 644.00 L 542.00 675.60 C562.50,696.16 574.90,707.86 577.50,709.08 ZM 427.74 561.24 C443.55,577.06 456.72,590.00 457.00,590.00 C457.29,590.00 466.74,580.77 478.00,569.50 L 498.49 549.00 L 464.00 514.50 C445.03,495.52 429.26,480.00 428.95,480.00 C428.29,480.00 399.00,530.60 399.00,531.73 C399.00,532.15 411.93,545.43 427.74,561.24 ZM 88.20 985.70 C89.03,985.72 89.89,985.50 90.55,984.96 C91.61,984.08 93.06,984.02 95.95,984.76 C98.13,985.31 100.16,985.50 100.48,985.19 C101.78,983.89 105.45,984.05 106.23,985.44 C106.81,986.48 107.96,986.76 110.03,986.34 C112.58,985.83 113.00,986.05 113.00,987.88 C113.00,989.95 112.04,990.46 109.00,990.02 C107.86,989.85 107.96,990.30 109.44,991.93 C110.50,993.11 111.92,993.86 112.59,993.60 C113.26,993.35 114.05,993.39 114.36,993.69 C114.67,994.00 117.07,994.42 119.71,994.63 C125.86,995.12 128.85,995.56 132.20,996.46 C134.02,996.95 135.62,996.68 137.13,995.62 C138.36,994.76 140.30,994.28 141.43,994.56 C142.57,994.83 203.12,995.20 276.00,995.38 C348.88,995.55 410.08,995.99 412.00,996.34 C415.05,996.90 423.27,997.80 426.64,997.95 C427.27,997.98 428.05,999.05 428.37,1000.33 C428.88,1002.39 429.61,1002.68 434.64,1002.89 C440.21,1003.11 445.85,1005.81 444.22,1007.46 C443.82,1007.86 444.17,1008.09 445.00,1007.98 C448.15,1007.53 450.00,1008.05 450.00,1009.39 C450.00,1010.97 452.12,1012.00 455.38,1012.00 C456.60,1012.00 458.10,1012.50 458.71,1013.11 C459.32,1013.72 461.32,1014.52 463.16,1014.89 C466.16,1015.50 466.53,1015.96 466.81,1019.34 C467.01,1021.68 467.74,1023.35 468.75,1023.73 C471.38,1024.74 476.37,1030.97 478.11,1035.40 C480.21,1040.73 483.50,1042.39 490.14,1041.48 C494.94,1040.82 495.25,1040.59 497.12,1036.22 C498.19,1033.71 501.28,1029.49 503.98,1026.83 C508.43,1022.45 508.82,1021.69 508.31,1018.51 C507.78,1015.28 507.94,1015.00 510.25,1015.00 C511.64,1015.00 514.06,1014.33 515.64,1013.51 C517.21,1012.68 519.72,1012.01 521.21,1012.01 C522.90,1012.00 524.33,1011.24 525.00,1010.00 C525.64,1008.80 527.09,1008.00 528.63,1008.00 C530.34,1008.00 531.36,1007.34 531.71,1006.01 C531.99,1004.92 532.60,1004.25 533.04,1004.53 C533.49,1004.81 534.14,1004.58 534.49,1004.02 C534.84,1003.46 537.68,1003.00 540.82,1003.00 C545.41,1003.00 546.76,1002.62 547.75,1001.03 C549.86,997.65 554.73,995.71 558.12,996.89 C560.25,997.64 561.83,997.58 563.79,996.71 C565.86,995.79 597.11,995.45 695.81,995.30 C766.93,995.19 825.97,994.83 827.00,994.50 C828.04,994.17 830.69,994.82 832.89,995.94 L 836.90 997.99 L 838.31 995.96 C840.23,993.23 848.51,992.21 852.57,994.21 C856.26,996.02 858.79,995.48 859.19,992.79 C859.36,991.64 860.17,990.39 861.00,990.01 C861.83,989.62 863.51,988.79 864.74,988.16 C865.97,987.52 867.46,987.00 868.06,987.00 C868.65,987.00 869.82,986.33 870.64,985.50 C871.47,984.67 873.75,984.00 875.72,984.00 C878.49,984.00 880.06,983.21 882.70,980.50 C884.57,978.58 886.92,977.00 887.93,977.00 C888.93,977.00 890.33,976.30 891.04,975.45 C891.75,974.60 893.27,973.97 894.41,974.06 C899.27,974.43 900.00,974.05 900.00,971.12 C900.00,967.86 901.30,966.47 905.26,965.47 C908.71,964.61 928.06,945.51 929.36,941.70 C929.70,940.71 931.34,939.43 933.01,938.85 C936.37,937.68 938.00,935.36 938.00,931.76 C938.00,930.45 938.65,928.51 939.44,927.44 C940.23,926.37 940.64,924.49 940.33,923.25 C939.85,921.28 940.17,921.00 942.86,921.00 C945.74,921.00 946.05,920.63 947.56,915.43 C948.59,911.91 950.26,908.89 952.10,907.25 C953.75,905.78 955.46,902.88 956.04,900.58 C956.61,898.33 957.56,895.38 958.17,894.00 C958.77,892.62 959.37,889.25 959.51,886.50 C959.79,880.75 962.24,875.38 964.98,874.51 C966.43,874.05 966.77,873.17 966.47,870.70 C964.80,856.94 965.30,850.00 967.98,850.00 C968.67,850.00 969.00,887.47 969.00,966.00 L 969.00 1082.00 L 968.87 969.75 C968.78,897.31 968.42,860.30 967.84,865.39 C964.76,892.38 952.57,921.73 935.75,942.64 C923.89,957.40 905.55,973.04 890.00,981.65 C875.92,989.45 856.66,996.31 840.92,999.13 C836.40,999.94 793.09,1000.47 694.50,1000.92 C540.21,1001.62 551.55,1001.13 536.52,1007.74 C513.40,1017.90 495.35,1039.39 489.87,1063.25 C489.14,1066.41 488.30,1069.00 488.00,1069.00 C487.70,1069.00 486.87,1066.50 486.16,1063.45 C479.49,1034.74 457.15,1011.69 428.00,1003.41 C421.87,1001.67 413.37,1001.53 279.00,1000.92 C185.49,1000.50 134.27,999.91 130.00,999.21 C116.43,996.97 101.80,992.18 88.20,985.70 ZM 9.74 899.09 C10.27,899.64 11.31,900.01 12.95,900.34 C15.20,900.79 16.09,901.63 16.53,903.72 C16.86,905.25 17.55,907.29 18.07,908.25 C18.59,909.21 19.08,911.80 19.17,914.00 C19.31,917.67 19.98,918.52 22.38,918.08 C23.98,917.78 27.00,921.28 27.00,923.43 C27.00,926.66 29.70,929.83 32.76,930.18 C35.34,930.48 35.50,930.80 35.51,935.50 C35.52,942.02 38.59,947.48 41.59,946.33 C42.32,946.05 43.59,947.27 44.55,949.17 C47.00,954.00 48.84,955.81 52.02,956.50 C54.11,956.96 55.24,958.13 56.41,961.06 C57.27,963.23 58.66,965.06 59.49,965.12 C60.32,965.19 62.69,965.32 64.75,965.41 C69.89,965.63 72.81,967.47 73.18,970.72 C73.45,973.03 74.23,973.65 78.26,974.78 C83.18,976.17 86.08,979.63 85.27,983.16 C85.17,983.61 85.25,984.01 85.46,984.36 C78.20,980.74 71.27,976.65 65.02,972.22 C52.95,963.67 36.10,946.75 28.30,935.35 C20.20,923.51 14.23,912.00 9.74,899.09 ZM 0.13 969.25 L 0.00 1082.00 L 0.00 1006.79 L 0.02 965.50 C0.07,873.91 0.34,849.14 1.31,849.00 C3.42,849.08 8.18,857.22 7.43,859.50 C6.08,863.60 5.80,869.20 6.89,870.29 C8.54,871.94 8.24,876.42 6.25,879.90 C4.54,882.88 4.55,882.99 6.72,884.51 C9.59,886.53 11.49,893.22 9.99,896.02 C9.59,896.76 9.36,897.37 9.32,897.88 C5.75,887.35 3.14,875.86 1.15,862.50 C0.59,858.74 0.21,898.64 0.13,969.25 ZM 650.50 458.01 C650.83,457.46 650.65,456.22 650.08,455.26 C648.96,453.33 648.86,453.44 648.51,456.75 C648.27,459.06 649.40,459.78 650.50,458.01 ZM 563.00 709.53 C563.00,708.64 563.59,708.29 564.49,708.64 C565.32,708.95 565.74,709.61 565.44,710.10 C564.56,711.52 563.00,711.15 563.00,709.53 Z" fill="rgb(76,7,56)"/>
<path d="M 0.13 969.25 C0.21,898.64 0.59,858.74 1.15,862.50 C5.67,892.85 13.39,913.54 28.30,935.35 C36.10,946.75 52.95,963.67 65.02,972.22 C83.65,985.42 108.20,995.61 130.00,999.21 C134.27,999.91 185.49,1000.50 279.00,1000.92 C413.37,1001.53 421.87,1001.67 428.00,1003.41 C457.15,1011.69 479.49,1034.74 486.16,1063.45 C486.87,1066.50 487.70,1069.00 488.00,1069.00 C488.30,1069.00 489.14,1066.41 489.87,1063.25 C495.35,1039.39 513.40,1017.90 536.52,1007.74 C551.55,1001.13 540.21,1001.62 694.50,1000.92 C793.09,1000.47 836.40,999.94 840.92,999.13 C856.66,996.31 875.92,989.45 890.00,981.65 C905.55,973.04 923.89,957.40 935.75,942.64 C952.57,921.73 964.76,892.38 967.84,865.39 C968.42,860.30 968.78,897.31 968.87,969.75 L 969.00 1082.00 L 484.50 1082.00 L 0.00 1082.00 L 0.13 969.25 ZM 199.00 859.53 C199.00,858.98 213.72,822.71 276.75,668.00 C286.94,642.97 299.66,611.70 305.02,598.50 C310.38,585.30 322.65,555.15 332.29,531.50 C341.93,507.85 351.83,483.55 354.29,477.50 C378.24,418.57 410.55,339.19 418.00,321.00 C423.06,308.62 430.57,290.17 434.68,280.00 C438.80,269.83 443.59,258.82 445.33,255.54 C450.14,246.49 460.05,237.17 470.11,232.23 C483.25,225.79 489.18,224.52 506.00,224.57 C519.17,224.61 521.23,224.87 528.50,227.38 C538.94,230.99 545.77,234.97 552.97,241.63 C563.07,250.98 562.45,249.74 587.17,310.50 C599.70,341.30 605.12,354.62 626.81,408.00 C632.29,421.48 641.37,443.75 646.99,457.50 C652.61,471.25 660.05,489.48 663.51,498.00 C666.97,506.52 671.92,518.67 674.50,525.00 C677.09,531.33 683.40,546.85 688.52,559.50 C693.65,572.15 701.51,591.50 706.00,602.50 C710.48,613.50 718.00,631.95 722.69,643.50 C727.39,655.05 732.70,668.10 734.50,672.50 C738.55,682.40 761.67,739.21 771.53,763.50 C788.85,806.14 807.89,852.78 809.40,856.25 C812.43,863.22 809.53,860.04 803.93,850.24 C800.87,844.88 787.86,822.28 775.02,800.00 C762.17,777.72 746.87,751.17 741.01,741.00 C735.15,730.83 720.89,706.08 709.31,686.00 C697.74,665.92 684.77,643.42 680.50,636.00 C676.23,628.58 661.81,603.60 648.47,580.50 C620.19,531.55 544.81,400.73 524.00,364.50 C506.05,333.24 505.01,331.58 504.04,332.64 C503.60,333.11 493.45,350.60 481.48,371.50 C469.51,392.40 454.23,418.95 447.53,430.50 C440.84,442.05 428.35,463.65 419.78,478.50 C411.22,493.35 395.77,520.12 385.46,538.00 C375.15,555.88 362.44,577.92 357.21,587.00 C351.99,596.08 344.47,609.12 340.49,616.00 C336.52,622.88 327.20,639.08 319.78,652.00 C312.36,664.92 293.56,697.55 278.00,724.50 C247.29,777.68 235.37,798.35 222.04,821.50 C198.96,861.57 199.00,861.52 199.00,859.53 ZM 412.18 709.00 C406.27,706.31 395.58,695.80 392.52,689.66 C389.34,683.29 389.13,675.41 391.98,669.57 C393.31,666.83 424.31,635.16 486.96,572.52 C567.37,492.13 580.15,479.74 581.33,481.02 C582.08,481.83 589.11,493.70 596.96,507.40 L 611.23 532.29 L 523.86 619.60 C456.27,687.15 435.48,707.36 432.00,708.93 C426.15,711.56 417.90,711.59 412.18,709.00 ZM 577.50 709.08 C574.90,707.86 562.50,696.16 542.00,675.60 L 510.51 644.00 L 531.25 623.25 L 552.00 602.51 L 583.47 633.97 C618.60,669.09 619.68,670.53 618.73,681.05 C618.45,684.14 617.43,688.21 616.46,690.08 C613.75,695.32 603.05,705.93 597.78,708.60 C591.86,711.61 583.32,711.81 577.50,709.08 ZM 427.74 561.24 C411.93,545.43 399.00,532.15 399.00,531.73 C399.00,530.60 428.29,480.00 428.95,480.00 C429.26,480.00 445.03,495.52 464.00,514.50 L 498.49 549.00 L 478.00 569.50 C466.74,580.77 457.29,590.00 457.00,590.00 C456.72,590.00 443.55,577.06 427.74,561.24 ZM 792.50 437.00 C769.40,413.90 750.05,395.00 749.50,395.00 C748.95,395.00 729.82,413.67 707.00,436.50 C684.18,459.33 665.06,478.00 664.50,477.99 C663.95,477.99 658.18,464.86 651.68,448.82 L 639.85 419.66 L 673.67 385.83 L 707.49 352.00 L 665.99 310.39 L 624.50 268.78 L 629.66 269.41 C632.50,269.76 640.44,271.58 647.30,273.47 C692.96,285.98 734.02,310.36 766.69,344.35 C793.36,372.10 812.74,403.80 825.18,440.00 C830.79,456.35 836.42,479.00 834.86,479.00 C834.66,479.00 815.60,460.10 792.50,437.00 ZM 301.26 435.08 L 259.01 392.50 L 229.75 421.75 L 200.48 451.01 L 187.23 437.73 L 173.97 424.45 L 179.05 418.47 C185.01,411.44 191.34,399.11 193.60,390.08 C194.77,385.40 195.09,380.64 194.77,372.58 C194.27,359.61 192.28,353.45 185.30,343.26 L 180.81 336.70 L 232.65 284.85 C261.16,256.33 284.95,233.00 285.50,233.00 C286.06,233.00 301.36,247.85 319.50,266.00 L 352.49 299.00 L 326.50 325.00 L 300.51 351.00 L 334.84 385.34 L 369.18 419.69 L 365.23 429.09 C363.06,434.27 358.90,444.35 356.00,451.50 C346.55,474.75 345.39,477.37 344.44,477.52 C343.92,477.59 324.49,458.50 301.26,435.08 Z" fill="rgb(254,254,254)"/>
</g>
</svg>