<svg xmlns="http://www.w3.org/2000/svg" width="969" height="1082" viewBox="0 0 969 1082">
<g>
<path d="M 803.13 843.44 C805.28,849.23 804.88,850.63 802.44,845.84 C801.50,844.00 797.79,837.55 794.19,831.50 C790.59,825.45 786.78,818.92 785.73,817.00 C782.54,811.15 778.85,804.71 771.02,791.30 C766.90,784.26 762.69,776.92 761.65,775.00 C760.62,773.08 758.29,769.03 756.49,766.00 C754.68,762.97 751.25,757.12 748.86,753.00 C746.48,748.88 744.07,744.74 743.51,743.81 C742.96,742.87 741.55,740.40 740.39,738.31 C735.91,730.25 734.02,727.00 731.69,723.30 C730.36,721.20 727.97,717.05 726.39,714.10 C724.80,711.14 723.05,707.99 722.50,707.09 C721.34,705.20 716.87,697.46 700.49,669.00 C694.00,657.72 687.50,646.47 686.03,644.00 C684.57,641.53 683.06,638.83 682.68,638.00 C682.29,637.17 681.05,634.96 679.91,633.08 C676.48,627.40 648.89,579.80 646.54,575.50 C644.61,571.97 629.29,545.39 622.91,534.50 C621.62,532.30 620.21,530.35 619.78,530.17 C619.35,529.98 619.00,529.15 619.00,528.32 C619.00,527.49 618.15,525.61 617.12,524.15 C616.08,522.69 613.88,519.03 612.22,516.00 C610.56,512.97 603.47,500.60 596.47,488.50 C571.01,444.48 569.00,440.95 569.00,440.31 C569.00,439.95 568.37,438.95 567.61,438.08 C566.85,437.21 563.18,431.10 559.46,424.50 C550.58,408.73 549.86,407.47 540.50,391.45 C529.87,373.27 530.30,374.01 523.61,362.00 C520.39,356.23 516.72,349.92 515.44,348.00 C514.17,346.08 511.56,341.58 509.63,338.00 C507.71,334.42 505.43,331.35 504.57,331.18 C503.71,331.00 503.00,331.22 503.00,331.68 C503.00,332.13 500.75,336.28 498.00,340.90 C495.25,345.53 493.00,349.91 493.00,350.65 C493.00,351.39 492.64,352.00 492.20,352.00 C491.76,352.00 490.39,353.91 489.16,356.25 C487.92,358.59 485.58,362.75 483.95,365.50 C482.32,368.25 480.44,371.62 479.76,373.00 C479.09,374.38 478.27,375.73 477.94,376.00 C477.61,376.27 475.32,380.10 472.84,384.50 C470.36,388.90 463.40,401.05 457.37,411.50 C451.33,421.95 442.40,437.48 437.52,446.00 C432.64,454.52 425.62,466.67 421.93,473.00 C418.23,479.33 414.21,486.30 412.99,488.50 C411.77,490.70 408.40,496.55 405.51,501.50 C395.81,518.07 374.24,555.45 372.04,559.50 C369.35,564.44 366.71,569.06 360.28,580.05 C357.53,584.76 353.80,591.28 351.98,594.55 C350.17,597.82 347.53,602.30 346.13,604.50 C344.72,606.70 342.71,610.08 341.67,612.00 C337.98,618.80 327.86,636.55 325.42,640.50 C324.07,642.70 322.67,645.17 322.31,646.00 C321.95,646.83 320.45,649.30 318.97,651.50 C317.49,653.70 315.96,656.51 315.57,657.75 C315.18,658.99 314.45,660.00 313.93,660.00 C313.42,660.00 313.00,660.51 313.00,661.12 C313.00,661.74 310.98,665.58 308.50,669.66 C306.02,673.74 304.00,677.20 304.00,677.35 C304.00,677.51 300.88,683.01 297.08,689.57 C293.27,696.13 285.53,709.60 279.87,719.50 C274.21,729.40 268.10,739.84 266.29,742.70 C264.48,745.56 263.00,748.16 263.00,748.47 C263.00,748.78 261.95,750.72 260.67,752.77 C259.39,754.82 256.96,758.97 255.27,762.00 C253.59,765.03 249.07,772.90 245.24,779.50 C241.40,786.10 231.41,803.42 223.03,818.00 L 221.03 821.48 C208.79,842.78 207.36,845.26 206.77,845.07 C206.66,845.04 206.58,844.92 206.47,844.80 C206.18,844.51 207.04,841.62 208.39,838.39 C209.75,835.15 215.19,821.70 220.49,808.50 C225.78,795.30 231.95,780.22 234.18,775.00 C240.17,760.99 240.65,759.83 242.02,756.00 C243.43,752.10 247.28,742.72 250.13,736.26 C251.16,733.93 252.00,731.77 252.00,731.46 C252.00,730.99 267.20,693.33 273.98,677.00 C275.01,674.53 277.46,668.63 279.43,663.89 C281.39,659.16 283.00,654.57 283.00,653.70 C283.00,652.83 283.37,651.89 283.82,651.61 C284.27,651.33 285.93,647.82 287.51,643.80 C289.09,639.79 290.83,635.89 291.39,635.15 C291.95,634.41 292.50,633.23 292.60,632.53 C292.81,631.09 299.56,613.82 300.94,611.20 C301.43,610.27 303.27,605.67 305.04,601.00 C306.80,596.33 309.54,589.66 311.12,586.18 C312.70,582.70 314.00,579.31 314.00,578.63 C314.00,577.95 314.38,576.97 314.83,576.45 C315.29,575.93 316.46,573.25 317.43,570.50 C318.40,567.75 319.99,563.70 320.97,561.50 C321.95,559.30 324.88,552.10 327.49,545.50 C330.10,538.90 332.83,532.15 333.56,530.50 C334.29,528.85 338.55,518.50 343.02,507.50 C347.50,496.50 351.54,486.60 352.01,485.50 C353.52,481.94 357.70,471.69 360.78,464.00 C363.86,456.29 369.46,442.58 382.02,412.00 C385.97,402.38 390.52,390.93 392.13,386.58 C393.73,382.22 395.42,378.17 395.89,377.58 C396.35,376.98 397.67,373.95 398.82,370.84 C399.96,367.73 401.77,363.23 402.83,360.84 C403.88,358.45 406.60,351.77 408.86,346.00 C411.12,340.23 415.03,330.55 417.55,324.50 C420.07,318.45 422.26,313.05 422.40,312.50 C422.55,311.95 423.18,310.38 423.80,309.00 C424.42,307.62 427.45,300.20 430.53,292.50 C433.61,284.80 437.23,276.13 438.57,273.22 C439.90,270.32 441.00,267.45 441.00,266.84 C441.00,266.23 442.87,262.23 445.16,257.93 C452.31,244.51 465.58,233.44 480.00,228.87 C492.67,224.85 496.02,224.40 508.00,225.14 C528.93,226.41 541.84,231.68 553.94,243.88 C561.80,251.80 563.68,255.06 571.33,274.00 C573.22,278.67 576.68,287.23 579.01,293.00 C581.34,298.77 584.06,305.30 585.06,307.50 C586.05,309.70 591.45,322.98 597.05,337.00 C602.65,351.02 608.08,364.39 609.12,366.70 C610.15,369.00 611.00,371.14 611.00,371.46 C611.00,371.77 611.84,373.93 612.87,376.26 C615.97,383.26 626.00,407.92 626.00,408.54 C626.00,409.03 627.81,413.36 631.00,420.50 C633.36,425.77 638.47,438.26 641.02,445.00 C642.59,449.12 645.64,456.77 647.80,462.00 C649.97,467.23 656.77,483.88 662.92,499.00 C669.07,514.12 674.51,527.40 675.02,528.50 C675.52,529.60 677.77,535.22 680.02,541.00 C682.26,546.78 684.80,553.08 685.67,555.00 C688.70,561.76 695.40,578.11 700.02,590.00 C701.71,594.34 703.72,599.22 706.41,605.50 C707.12,607.15 708.28,610.08 708.99,612.00 C709.70,613.92 712.06,619.78 714.24,625.00 C716.41,630.22 718.54,635.40 718.97,636.50 C719.40,637.60 720.33,639.85 721.04,641.50 C721.75,643.15 722.45,644.95 722.59,645.50 C722.98,647.01 729.89,664.07 731.50,667.50 C733.00,670.69 736.82,680.07 744.53,699.49 C747.15,706.09 749.67,712.17 750.13,712.99 C750.59,713.82 754.83,724.17 759.56,736.00 C764.28,747.83 770.53,763.35 773.45,770.50 C776.36,777.65 779.75,785.97 780.97,789.00 C789.88,811.04 796.31,826.80 798.61,832.19 C800.09,835.66 802.12,840.72 803.13,843.44 ZM 347.68 469.46 C346.32,472.75 344.83,475.56 344.35,475.72 C343.88,475.87 324.49,456.99 301.25,433.75 L 259.00 391.51 L 229.74 420.76 L 200.48 450.01 L 175.08 424.50 L 180.51 418.00 C186.02,411.40 190.81,402.75 192.97,395.50 C193.63,393.30 194.55,390.24 195.01,388.70 C195.48,387.17 195.85,381.22 195.85,375.48 C195.83,361.15 192.40,350.42 184.71,340.66 L 181.69 336.82 L 233.09 285.41 C261.36,257.13 284.95,234.00 285.50,234.00 C286.06,234.00 301.13,248.63 319.01,266.51 L 351.50 299.02 L 325.48 324.99 L 299.46 350.96 L 368.16 419.67 L 365.49 426.08 C364.01,429.61 362.22,433.85 361.49,435.50 C360.77,437.15 357.92,444.12 355.16,451.00 C352.40,457.88 349.04,466.18 347.68,469.46 ZM 706.96 434.51 C683.84,457.60 664.80,476.60 664.64,476.73 C664.29,477.03 662.50,472.87 655.49,455.50 C645.96,431.92 643.80,426.63 642.29,423.17 C641.49,421.34 641.09,419.54 641.42,419.17 C641.74,418.80 656.96,403.53 675.23,385.23 L 708.45 351.96 L 667.48 310.98 C644.95,288.44 626.73,270.00 627.00,270.00 C629.00,270.00 644.78,273.44 650.49,275.12 C685.32,285.35 714.20,300.42 742.00,322.88 C755.06,333.43 758.00,336.16 758.00,337.75 C758.00,338.44 758.57,339.00 759.26,339.00 C761.24,339.00 765.86,343.77 779.04,359.42 C791.04,373.67 807.92,399.97 813.42,413.00 C814.46,415.48 816.32,419.75 817.54,422.50 C818.76,425.25 820.43,429.08 821.25,431.00 C824.31,438.17 829.00,452.96 829.00,455.44 C829.00,456.30 829.40,457.00 829.89,457.00 C830.38,457.00 830.73,457.56 830.67,458.25 C830.53,459.75 832.75,470.38 834.01,474.25 C834.50,475.76 834.58,477.00 834.20,477.00 C833.82,477.00 814.50,457.99 791.26,434.76 L 749.01 392.51 ZM 431.11 708.62 C424.91,711.56 418.20,711.26 411.46,707.75 C407.05,705.45 395.29,693.49 392.98,688.96 C390.51,684.13 390.36,675.22 392.65,670.15 C393.72,667.79 427.14,633.60 486.89,573.75 C537.81,522.74 579.78,481.00 580.16,481.00 C580.73,481.00 589.64,496.34 590.90,499.50 C591.12,500.05 591.62,500.73 592.00,501.00 C592.39,501.27 594.19,504.20 596.01,507.50 C601.03,516.59 602.40,518.97 606.36,525.50 L 609.99 531.50 L 522.25 619.25 C472.79,668.71 433.02,707.71 431.11,708.62 ZM 598.18 707.40 C593.58,710.29 586.28,711.52 581.99,710.12 C576.00,708.17 571.88,704.50 542.63,675.19 L 511.76 644.25 L 532.00 624.00 L 552.24 603.75 L 583.45 634.95 C609.79,661.28 614.92,666.88 616.33,670.82 C618.56,677.04 618.46,684.18 616.08,688.79 C613.57,693.64 603.65,703.96 598.18,707.40 ZM 477.50 569.00 C466.51,580.00 457.29,589.00 457.00,589.00 C456.25,589.00 400.00,532.61 400.00,531.86 C400.00,531.31 411.98,510.14 421.14,494.50 C422.75,491.75 425.04,487.59 426.23,485.25 C427.42,482.91 428.65,481.00 428.95,481.00 C429.26,481.00 444.81,496.30 463.50,515.00 L 497.49 549.00 Z" fill="rgb(80,5,50)"/>
<path d="M 425.66 1002.56 C426.21,1004.00 425.79,1004.46 424.81,1003.48 C424.53,1003.19 421.87,1002.70 418.90,1002.38 C415.93,1002.06 413.21,1001.63 412.86,1001.41 C412.51,1001.20 350.30,1001.01 274.61,1000.99 C138.15,1000.96 137.00,1000.94 137.00,998.98 C137.00,996.89 140.53,996.09 141.18,998.04 C141.42,998.76 183.98,999.06 277.17,999.02 C373.64,998.98 412.92,999.27 413.18,1000.04 C413.44,1000.81 414.35,1000.82 416.33,1000.07 C418.09,999.39 418.89,999.37 418.50,1000.00 C418.16,1000.55 418.58,1001.00 419.44,1001.00 C420.30,1001.00 421.00,1000.52 421.00,999.94 C421.00,999.36 421.46,999.16 422.02,999.51 C422.58,999.86 422.77,1000.56 422.46,1001.07 C422.14,1001.58 422.36,1002.00 422.94,1002.00 C423.52,1002.00 424.00,1001.55 424.00,1001.00 C424.00,1000.45 424.79,1000.04 425.75,1000.08 C426.71,1000.12 426.96,1000.38 426.31,1000.64 C425.65,1000.91 425.36,1001.78 425.66,1002.56 ZM 697.50 1001.01 C595.31,1001.09 562.70,1001.41 556.75,1002.38 C552.49,1003.08 549.00,1003.28 549.00,1002.82 C549.00,1002.37 549.34,1001.97 549.75,1001.92 C550.16,1001.88 551.40,1001.66 552.50,1001.43 C553.60,1001.20 556.16,1000.89 558.20,1000.73 C560.23,1000.57 562.23,1000.11 562.63,999.70 C563.04,999.30 625.05,999.03 700.43,999.10 C776.07,999.18 835.93,999.62 834.00,1000.08 C832.08,1000.54 770.65,1000.96 697.50,1001.01 ZM 849.00 997.09 C848.72,997.42 846.96,997.98 845.09,998.35 C841.72,999.01 841.70,998.99 843.49,997.01 C845.41,994.88 846.54,994.32 845.50,996.00 C844.54,997.55 846.68,997.18 848.35,995.51 C849.47,994.39 849.94,994.33 850.26,995.26 C850.56,996.16 851.06,996.21 852.09,995.43 C852.86,994.84 854.76,994.28 856.30,994.19 C857.84,994.09 860.09,993.46 861.30,992.79 C862.51,992.12 863.84,991.67 864.25,991.79 C864.66,991.90 865.00,991.55 865.00,991.00 C865.00,990.45 866.01,989.99 867.25,989.99 C868.49,989.98 870.55,989.69 871.83,989.35 C873.59,988.88 873.84,988.51 872.83,987.86 C871.92,987.27 872.29,987.07 874.00,987.25 C875.39,987.39 876.41,987.01 876.30,986.40 C876.19,985.80 877.40,985.26 878.99,985.22 C882.65,985.12 886.00,983.35 886.00,981.52 C886.00,980.62 886.77,980.26 888.13,980.53 C889.31,980.75 891.39,980.05 892.77,978.97 C894.14,977.89 894.73,977.00 894.08,977.00 C893.42,977.00 893.18,976.51 893.55,975.91 C893.92,975.31 895.01,975.03 895.97,975.28 C898.22,975.87 901.00,974.31 901.00,972.45 C901.00,971.65 901.79,970.99 902.75,970.98 C903.71,970.98 905.17,970.48 906.00,969.89 C907.27,968.98 907.23,968.90 905.75,969.37 C903.57,970.07 903.47,968.68 905.58,966.94 C906.85,965.88 907.31,965.88 907.94,966.90 C908.53,967.86 908.88,967.74 909.38,966.44 C909.75,965.49 910.32,964.99 910.66,965.33 C911.73,966.40 918.85,960.04 919.18,957.72 C919.39,956.27 920.20,955.50 921.50,955.50 C922.78,955.50 923.41,954.92 923.24,953.88 C923.09,952.99 923.65,951.70 924.49,951.01 C925.61,950.08 926.00,950.06 926.00,950.94 C926.00,951.59 926.48,951.82 927.07,951.46 C927.66,951.09 927.92,950.22 927.65,949.52 C926.97,947.75 928.92,946.03 930.79,946.75 C931.80,947.14 932.08,946.94 931.61,946.17 C931.21,945.53 931.38,945.00 931.98,945.00 C932.59,945.00 933.01,944.44 932.93,943.75 C932.59,941.15 933.04,939.90 934.08,940.55 C935.80,941.61 938.93,937.52 938.41,934.86 C938.05,932.95 938.12,932.85 938.79,934.37 C939.54,936.09 939.77,936.01 941.46,933.42 C942.71,931.51 942.93,930.48 942.15,930.22 C940.44,929.65 940.76,928.00 942.57,928.00 C945.00,928.00 948.68,923.22 948.16,920.75 C948.07,920.34 948.45,920.00 949.00,920.00 C949.55,920.00 950.00,919.07 950.00,917.94 C950.00,916.81 950.40,916.13 950.90,916.44 C952.21,917.25 953.08,914.24 952.42,911.17 C951.98,909.16 952.09,908.86 952.87,909.97 C953.75,911.24 953.98,911.21 954.55,909.72 C954.92,908.77 955.65,908.00 956.18,908.00 C957.75,908.00 946.91,927.78 940.00,937.50 C926.20,956.92 902.20,976.89 880.71,986.83 C871.02,991.31 858.08,995.74 853.46,996.15 C851.28,996.34 849.28,996.77 849.00,997.09 ZM 84.00 983.98 L 84.00 984.06 C84.00,984.45 84.00,984.72 83.87,984.82 C83.60,985.03 82.78,984.52 80.23,982.94 L 80.00 982.80 C57.03,968.56 41.04,954.40 29.43,937.99 C20.11,924.82 18.57,922.03 19.87,920.73 C20.71,919.89 21.00,920.22 21.00,921.99 C21.00,924.32 21.04,924.33 22.57,922.44 C24.06,920.60 24.11,920.68 23.58,923.85 C23.11,926.61 23.36,927.28 24.99,927.71 C26.09,927.99 26.73,928.63 26.43,929.11 C26.13,929.60 26.47,930.01 27.19,930.02 C28.19,930.03 28.21,930.21 27.29,930.80 C26.41,931.36 26.84,932.47 28.82,934.79 C30.33,936.55 32.10,938.00 32.75,938.00 C33.40,938.00 33.68,938.67 33.37,939.49 C32.66,941.32 37.70,947.50 39.90,947.50 C40.78,947.51 41.51,948.25 41.51,949.16 C41.53,951.37 45.00,955.12 46.29,954.32 C46.85,953.97 47.02,954.16 46.67,954.73 C46.31,955.30 46.69,956.33 47.51,957.01 C48.63,957.93 49.00,957.95 49.00,957.06 C49.00,956.41 49.50,956.19 50.11,956.57 C50.91,957.06 50.91,957.44 50.08,957.95 C49.33,958.42 49.68,959.28 51.15,960.57 C53.08,962.27 53.26,962.30 52.71,960.76 C52.16,959.26 52.33,959.19 54.04,960.26 C55.12,960.93 56.00,962.45 56.00,963.63 C56.00,965.98 58.13,967.27 60.51,966.36 C61.55,965.96 61.85,966.24 61.45,967.26 C61.02,968.40 61.48,968.63 63.44,968.26 C65.60,967.84 66.00,968.13 66.00,970.14 C66.00,971.89 67.20,973.24 70.54,975.26 C73.04,976.77 75.51,978.00 76.04,978.00 C76.57,978.00 77.00,978.37 77.00,978.81 C77.00,979.26 78.57,980.38 80.50,981.30 C82.43,982.22 84.00,983.42 84.00,983.98 ZM 0.00 972.83 L 0.00 208.66 L 0.02 430.25 C0.04,704.71 0.39,859.00 1.00,859.00 C1.01,859.00 1.01,859.00 1.01,859.00 C1.71,857.90 1.98,858.56 2.00,861.50 C2.02,864.45 2.28,865.11 3.00,864.00 C3.53,863.17 3.98,862.97 3.98,863.55 C3.99,864.13 3.58,865.03 3.08,865.55 C1.70,866.97 2.99,872.00 4.73,872.00 C5.86,872.00 6.07,872.68 5.57,874.75 C5.20,876.26 4.90,879.08 4.91,881.00 C4.92,884.28 4.86,884.35 3.93,882.07 C3.38,880.73 3.13,879.09 3.39,878.44 C3.64,877.78 3.43,876.83 2.93,876.33 C2.43,875.83 1.75,872.97 1.42,869.96 C1.09,866.96 0.63,864.31 0.41,864.08 L 0.41 864.08 C0.18,864.08 0.00,912.93 0.00,972.83 ZM 496.24 1046.75 C494.34,1050.74 492.64,1054.00 492.47,1054.00 C492.30,1054.00 492.60,1052.42 493.13,1050.49 C493.66,1048.55 493.78,1046.46 493.40,1045.83 C492.96,1045.13 493.14,1044.97 493.85,1045.40 C494.48,1045.80 495.00,1045.64 495.00,1045.06 C495.00,1044.48 494.55,1044.00 494.00,1044.00 C493.45,1044.00 493.00,1043.56 493.00,1043.03 C493.00,1042.50 493.72,1042.34 494.60,1042.68 C496.54,1043.42 498.16,1041.16 497.41,1038.75 C497.03,1037.51 497.64,1036.71 499.50,1036.00 C501.56,1035.22 501.99,1034.55 501.48,1032.94 C500.96,1031.31 501.21,1030.94 502.66,1031.19 C504.01,1031.42 504.42,1030.96 504.21,1029.50 C503.97,1027.85 504.10,1027.76 504.94,1029.00 C505.87,1030.35 506.43,1029.74 506.12,1027.75 C506.05,1027.34 506.42,1027.00 506.92,1027.00 C508.23,1027.00 513.87,1021.21 513.21,1020.54 C512.91,1020.25 513.47,1020.00 514.45,1020.00 C515.74,1020.00 516.09,1019.45 515.71,1018.00 C515.42,1016.90 515.60,1015.75 516.09,1015.44 C516.59,1015.13 517.00,1015.64 517.00,1016.56 C517.00,1017.94 517.27,1018.02 518.50,1017.00 C519.33,1016.32 520.00,1015.14 520.00,1014.38 C520.00,1013.59 521.02,1013.00 522.38,1013.00 C523.69,1013.00 525.37,1012.08 526.13,1010.95 C527.27,1009.25 534.00,1007.16 534.00,1008.51 C534.00,1008.73 531.86,1010.15 529.25,1011.65 C514.42,1020.20 503.28,1032.05 496.24,1046.75 ZM 481.58 1047.72 C483.83,1053.62 482.92,1055.01 480.59,1049.23 C478.36,1043.73 470.63,1032.27 465.24,1026.48 C460.41,1021.30 450.67,1013.79 445.25,1011.08 C440.69,1008.80 439.58,1007.41 443.25,1008.58 C444.49,1008.97 446.40,1009.34 447.50,1009.40 C448.60,1009.45 449.50,1010.17 449.50,1010.99 C449.50,1011.84 450.80,1012.76 452.50,1013.12 C454.15,1013.47 455.11,1013.82 454.63,1013.88 C454.15,1013.95 454.32,1014.69 455.02,1015.52 C455.77,1016.43 457.06,1016.80 458.21,1016.43 C459.55,1016.01 460.03,1016.25 459.81,1017.25 C459.64,1018.04 461.64,1020.85 464.25,1023.51 C466.86,1026.16 469.00,1028.66 469.00,1029.07 C469.00,1029.47 470.46,1030.34 472.25,1031.00 C474.04,1031.66 474.96,1032.41 474.31,1032.67 C472.46,1033.38 473.97,1036.00 476.22,1036.00 C477.73,1036.00 478.10,1036.49 477.72,1037.95 C477.11,1040.30 479.05,1043.27 480.90,1042.82 C481.66,1042.64 482.40,1043.56 482.64,1044.98 C483.05,1047.39 483.02,1047.41 481.51,1045.48 C480.16,1043.75 480.17,1044.04 481.58,1047.72 ZM 968.99 425.25 L 969.00 0.00 L 969.00 972.33 C969.00,912.16 968.82,863.08 968.61,863.08 L 968.60 863.08 C968.39,863.31 967.94,866.16 967.62,869.40 C966.68,878.71 966.19,877.08 966.33,865.15 C966.40,859.11 966.75,854.35 967.12,854.57 C967.48,854.79 968.04,853.97 968.37,852.74 C968.70,851.51 968.98,659.14 968.99,425.25 ZM 488.57 1073.11 C488.82,1073.52 488.65,1074.10 488.18,1074.39 C487.72,1074.68 487.30,1074.37 487.26,1073.71 C487.23,1073.04 486.87,1071.03 486.47,1069.23 C485.82,1066.32 485.95,1066.04 487.62,1066.65 C489.21,1067.23 489.17,1067.04 487.32,1065.42 C485.20,1063.56 482.52,1056.15 483.58,1055.09 C484.20,1054.46 486.03,1057.15 485.53,1057.95 C485.34,1058.25 486.27,1058.50 487.60,1058.50 C489.22,1058.50 490.00,1057.93 490.00,1056.75 C490.00,1055.79 490.45,1055.00 491.00,1055.00 C492.35,1055.00 492.30,1055.56 490.05,1064.55 C488.98,1068.84 488.31,1072.69 488.57,1073.11 ZM 18.75 916.53 C18.61,918.44 18.43,920.00 18.35,920.00 C17.27,920.01 8.66,901.01 9.40,900.26 C11.09,898.58 16.75,908.77 16.14,912.39 C15.91,913.76 16.26,914.11 17.41,913.67 C18.69,913.18 18.95,913.73 18.75,916.53 ZM 268.47 690.42 C268.45,690.41 268.42,690.40 268.40,690.39 C267.17,689.88 267.73,685.28 269.12,684.43 C269.60,684.13 270.00,683.01 270.00,681.94 C270.00,680.87 270.40,680.00 270.89,680.00 C271.73,680.00 272.83,677.06 273.68,672.55 C273.88,671.48 274.71,669.87 275.52,668.97 C276.34,668.08 277.00,666.88 277.00,666.31 C277.00,665.74 277.92,664.11 279.04,662.68 C280.00,661.45 281.19,659.30 281.87,657.57 C281.23,659.38 280.37,661.62 279.43,663.89 C277.46,668.63 275.01,674.53 273.98,677.00 C272.48,680.63 270.55,685.32 268.47,690.42 ZM 961.41 895.70 C959.15,902.79 956.13,909.01 956.03,906.77 C955.98,905.68 958.96,897.88 960.58,894.85 C962.25,891.72 962.62,887.50 961.00,890.00 C959.15,892.86 960.01,890.03 961.97,886.81 C963.05,885.03 963.57,883.34 963.12,883.04 C962.67,882.74 963.17,881.15 964.23,879.50 L 966.16 876.50 L 965.68 879.50 C964.94,884.14 964.23,886.85 961.41,895.70 ZM 108.44 993.53 C111.32,995.71 109.45,995.28 100.00,991.59 C86.75,986.42 86.00,986.09 86.00,985.42 C86.00,985.07 87.24,985.11 88.75,985.51 C90.26,985.91 92.21,986.29 93.07,986.37 C93.94,986.44 95.43,987.29 96.40,988.25 C97.47,989.33 99.75,990.03 102.32,990.07 C105.57,990.12 106.06,990.33 104.50,991.00 L 102.50 991.86 L 104.50 991.96 C105.60,992.02 107.37,992.72 108.44,993.53 ZM 9.16 894.50 C9.35,896.98 9.38,899.00 9.21,899.00 C8.56,899.00 6.15,892.33 5.45,888.61 C4.92,885.75 5.03,884.90 5.89,885.43 C6.53,885.83 6.99,886.68 6.91,887.33 C6.61,889.74 7.03,891.10 7.90,890.56 C8.39,890.26 8.96,892.03 9.16,894.50 ZM 441.00 1006.89 C440.40,1007.32 440.04,1007.61 439.63,1007.74 C438.86,1007.97 437.91,1007.64 434.93,1006.58 L 434.25 1006.34 C431.91,1005.51 430.00,1004.46 430.00,1004.01 C430.00,1003.04 433.46,1003.84 436.85,1005.60 C438.17,1006.28 439.98,1006.61 440.87,1006.33 C442.28,1005.88 442.30,1005.96 441.00,1006.89 ZM 262.03 706.27 C264.77,699.04 265.15,696.98 264.22,696.80 C262.81,696.53 262.82,696.32 264.32,694.82 C265.24,693.90 266.00,692.66 266.00,692.07 C266.00,691.48 266.79,690.96 267.75,690.92 C267.96,690.91 268.14,690.89 268.29,690.87 C266.26,695.83 264.10,701.16 262.03,706.27 ZM 310.08 666.98 C308.44,670.16 307.20,672.99 307.85,672.59 C309.90,671.32 309.07,673.03 306.44,675.46 C304.51,677.26 301.65,681.67 291.49,699.25 C293.69,695.43 295.66,692.02 297.08,689.57 C300.88,683.01 304.00,677.51 304.00,677.35 C304.00,677.20 306.02,673.74 308.50,669.66 C309.06,668.74 309.59,667.84 310.08,666.98 ZM 488.57 1044.32 C488.95,1045.32 488.81,1046.59 488.25,1047.15 C486.74,1048.66 485.67,1046.40 486.88,1044.26 C487.81,1042.59 487.90,1042.59 488.57,1044.32 ZM 945.36 923.50 C945.05,924.33 944.38,925.00 943.89,925.00 C943.40,925.00 943.00,924.33 943.00,923.50 C943.00,922.67 943.66,922.00 944.47,922.00 C945.36,922.00 945.71,922.59 945.36,923.50 ZM 105.00 986.00 C105.00,986.55 104.55,987.00 104.00,987.00 C103.45,987.00 103.00,986.55 103.00,986.00 C103.00,985.45 103.45,985.00 104.00,985.00 C104.55,985.00 105.00,985.45 105.00,986.00 ZM 243.72 751.59 C245.36,747.41 247.64,741.84 249.09,738.50 C249.33,737.93 250.51,735.06 252.18,730.93 C252.06,731.25 252.00,731.43 252.00,731.46 C252.00,731.77 251.16,733.93 250.13,736.26 C248.08,740.90 245.52,747.05 243.72,751.59 ZM 314.16 659.94 C313.61,660.71 312.91,661.85 312.18,663.12 C312.69,662.09 313.00,661.36 313.00,661.12 C313.00,660.51 313.42,660.00 313.93,660.00 C314.00,660.00 314.08,659.98 314.16,659.94 ZM 291.39 635.15 C291.07,635.58 290.33,637.10 289.46,639.08 C289.47,639.06 289.48,639.03 289.49,639.00 C289.90,637.62 290.73,635.89 291.33,635.15 C291.92,634.41 292.50,633.23 292.60,632.53 C292.50,633.23 291.95,634.41 291.39,635.15 ZM 316.08 656.52 C316.03,656.67 316.00,656.78 316.00,656.86 C316.00,657.27 315.68,657.97 315.23,658.60 C315.36,658.34 315.48,658.05 315.57,657.75 C315.67,657.43 315.84,657.01 316.08,656.52 Z" fill="rgb(199,188,200)"/>
<path d="M 0.00 972.83 C0.00,912.79 0.18,863.85 0.41,864.08 C0.63,864.31 1.09,866.96 1.42,869.96 C1.75,872.97 2.43,875.83 2.93,876.33 C3.43,876.83 3.64,877.78 3.39,878.44 C3.13,879.09 3.38,880.73 3.93,882.07 C4.86,884.35 4.92,884.28 4.91,881.00 C4.90,879.08 5.20,876.26 5.57,874.75 C6.07,872.68 5.86,872.00 4.73,872.00 C2.99,872.00 1.70,866.97 3.08,865.55 C3.58,865.03 3.99,864.13 3.98,863.55 C3.98,862.97 3.53,863.17 3.00,864.00 C2.28,865.11 2.02,864.45 2.00,861.50 C1.98,858.56 1.71,857.90 1.01,859.00 C0.39,859.96 0.04,705.56 0.02,430.25 L -0.02 0.00 L 484.49 0.00 L 969.00 0.00 L 968.99 425.25 C968.98,659.14 968.70,851.51 968.37,852.74 C968.04,853.97 967.48,854.79 967.12,854.57 C966.75,854.35 966.40,859.11 966.33,865.15 C966.19,877.08 966.68,878.71 967.62,869.40 C967.94,866.16 968.39,863.31 968.60,863.08 C968.82,862.85 969.00,912.02 969.00,972.33 L 969.00 1082.00 L 484.50 1082.00 L 0.00 1082.00 L 0.00 972.83 ZM 488.57 1073.11 C488.31,1072.69 488.98,1068.84 490.05,1064.55 C492.30,1055.56 492.35,1055.00 491.00,1055.00 C490.45,1055.00 490.00,1055.79 490.00,1056.75 C490.00,1057.93 489.22,1058.50 487.60,1058.50 C486.27,1058.50 485.34,1058.25 485.53,1057.95 C486.03,1057.15 484.20,1054.46 483.58,1055.09 C482.52,1056.15 485.20,1063.56 487.32,1065.42 C489.17,1067.04 489.21,1067.23 487.62,1066.65 C485.95,1066.04 485.82,1066.32 486.47,1069.23 C486.87,1071.03 487.23,1073.04 487.26,1073.71 C487.30,1074.37 487.72,1074.68 488.18,1074.39 C488.65,1074.10 488.82,1073.52 488.57,1073.11 ZM 481.58 1047.72 C480.17,1044.04 480.16,1043.75 481.51,1045.48 C483.02,1047.41 483.05,1047.39 482.64,1044.98 C482.40,1043.56 481.66,1042.64 480.90,1042.82 C479.05,1043.27 477.11,1040.30 477.72,1037.95 C478.10,1036.49 477.73,1036.00 476.22,1036.00 C473.97,1036.00 472.46,1033.38 474.31,1032.67 C474.96,1032.41 474.04,1031.66 472.25,1031.00 C470.46,1030.34 469.00,1029.47 469.00,1029.07 C469.00,1028.66 466.86,1026.16 464.25,1023.51 C461.64,1020.85 459.64,1018.04 459.81,1017.25 C460.03,1016.25 459.55,1016.01 458.21,1016.43 C457.06,1016.80 455.77,1016.43 455.02,1015.52 C454.32,1014.69 454.15,1013.95 454.63,1013.88 C455.11,1013.82 454.15,1013.47 452.50,1013.12 C450.80,1012.76 449.50,1011.84 449.50,1010.99 C449.50,1010.17 448.60,1009.45 447.50,1009.40 C446.40,1009.34 444.49,1008.97 443.25,1008.58 C439.58,1007.41 440.69,1008.80 445.25,1011.08 C450.67,1013.79 460.41,1021.30 465.24,1026.48 C470.63,1032.27 478.36,1043.73 480.59,1049.23 C482.92,1055.01 483.83,1053.62 481.58,1047.72 ZM 496.24 1046.75 C503.28,1032.05 514.42,1020.20 529.25,1011.65 C531.86,1010.15 534.00,1008.73 534.00,1008.51 C534.00,1007.16 527.27,1009.25 526.13,1010.95 C525.37,1012.08 523.69,1013.00 522.38,1013.00 C521.02,1013.00 520.00,1013.59 520.00,1014.38 C520.00,1015.14 519.33,1016.32 518.50,1017.00 C517.27,1018.02 517.00,1017.94 517.00,1016.56 C517.00,1015.64 516.59,1015.13 516.09,1015.44 C515.60,1015.75 515.42,1016.90 515.71,1018.00 C516.09,1019.45 515.74,1020.00 514.45,1020.00 C513.47,1020.00 512.91,1020.25 513.21,1020.54 C513.87,1021.21 508.23,1027.00 506.92,1027.00 C506.42,1027.00 506.05,1027.34 506.12,1027.75 C506.43,1029.74 505.87,1030.35 504.94,1029.00 C504.10,1027.76 503.97,1027.85 504.21,1029.50 C504.42,1030.96 504.01,1031.42 502.66,1031.19 C501.21,1030.94 500.96,1031.31 501.48,1032.94 C501.99,1034.55 501.56,1035.22 499.50,1036.00 C497.64,1036.71 497.03,1037.51 497.41,1038.75 C498.16,1041.16 496.54,1043.42 494.60,1042.68 C493.72,1042.34 493.00,1042.50 493.00,1043.03 C493.00,1043.56 493.45,1044.00 494.00,1044.00 C494.55,1044.00 495.00,1044.48 495.00,1045.06 C495.00,1045.64 494.48,1045.80 493.85,1045.40 C493.14,1044.97 492.96,1045.13 493.40,1045.83 C493.78,1046.46 493.66,1048.55 493.13,1050.49 C492.60,1052.42 492.30,1054.00 492.47,1054.00 C492.64,1054.00 494.34,1050.74 496.24,1046.75 ZM 488.57 1044.32 C487.90,1042.59 487.81,1042.59 486.88,1044.26 C485.67,1046.40 486.74,1048.66 488.25,1047.15 C488.81,1046.59 488.95,1045.32 488.57,1044.32 ZM 441.00 1006.89 C442.30,1005.96 442.28,1005.88 440.87,1006.33 C439.98,1006.61 438.17,1006.28 436.85,1005.60 C433.46,1003.84 430.00,1003.04 430.00,1004.01 C430.00,1004.46 431.91,1005.51 434.25,1006.34 C439.54,1008.21 439.20,1008.18 441.00,1006.89 ZM 425.66 1002.56 C425.36,1001.78 425.65,1000.91 426.31,1000.64 C426.96,1000.38 426.71,1000.12 425.75,1000.08 C424.79,1000.04 424.00,1000.45 424.00,1001.00 C424.00,1001.55 423.52,1002.00 422.94,1002.00 C422.36,1002.00 422.14,1001.58 422.46,1001.07 C422.77,1000.56 422.58,999.86 422.02,999.51 C421.46,999.16 421.00,999.36 421.00,999.94 C421.00,1000.52 420.30,1001.00 419.44,1001.00 C418.58,1001.00 418.16,1000.55 418.50,1000.00 C418.89,999.37 418.09,999.39 416.33,1000.07 C414.35,1000.82 413.44,1000.81 413.18,1000.04 C412.92,999.27 373.64,998.98 277.17,999.02 C183.98,999.06 141.42,998.76 141.18,998.04 C140.53,996.09 137.00,996.89 137.00,998.98 C137.00,1000.94 138.15,1000.96 274.61,1000.99 C350.30,1001.01 412.51,1001.20 412.86,1001.41 C413.21,1001.63 415.93,1002.06 418.90,1002.38 C421.87,1002.70 424.53,1003.19 424.81,1003.48 C425.79,1004.46 426.21,1004.00 425.66,1002.56 ZM 697.50 1001.01 C770.65,1000.96 832.08,1000.54 834.00,1000.08 C835.93,999.62 776.07,999.18 700.43,999.10 C625.05,999.03 563.04,999.30 562.63,999.70 C562.23,1000.11 560.23,1000.57 558.20,1000.73 C556.16,1000.89 553.60,1001.20 552.50,1001.43 C551.40,1001.66 550.16,1001.88 549.75,1001.92 C549.34,1001.97 549.00,1002.37 549.00,1002.82 C549.00,1003.28 552.49,1003.08 556.75,1002.38 C562.70,1001.41 595.31,1001.09 697.50,1001.01 ZM 849.00 997.09 C849.28,996.77 851.28,996.34 853.46,996.15 C858.08,995.74 871.02,991.31 880.71,986.83 C902.20,976.89 926.20,956.92 940.00,937.50 C946.91,927.78 957.75,908.00 956.18,908.00 C955.65,908.00 954.92,908.77 954.55,909.72 C953.98,911.21 953.75,911.24 952.87,909.97 C952.09,908.86 951.98,909.16 952.42,911.17 C953.08,914.24 952.21,917.25 950.90,916.44 C950.40,916.13 950.00,916.81 950.00,917.94 C950.00,919.07 949.55,920.00 949.00,920.00 C948.45,920.00 948.07,920.34 948.16,920.75 C948.68,923.22 945.00,928.00 942.57,928.00 C940.76,928.00 940.44,929.65 942.15,930.22 C942.93,930.48 942.71,931.51 941.46,933.42 C939.77,936.01 939.54,936.09 938.79,934.37 C938.12,932.85 938.05,932.95 938.41,934.86 C938.93,937.52 935.80,941.61 934.08,940.55 C933.04,939.90 932.59,941.15 932.93,943.75 C933.01,944.44 932.59,945.00 931.98,945.00 C931.38,945.00 931.21,945.53 931.61,946.17 C932.08,946.94 931.80,947.14 930.79,946.75 C928.92,946.03 926.97,947.75 927.65,949.52 C927.92,950.22 927.66,951.09 927.07,951.46 C926.48,951.82 926.00,951.59 926.00,950.94 C926.00,950.06 925.61,950.08 924.49,951.01 C923.65,951.70 923.09,952.99 923.24,953.88 C923.41,954.92 922.78,955.50 921.50,955.50 C920.20,955.50 919.39,956.27 919.18,957.72 C918.85,960.04 911.73,966.40 910.66,965.33 C910.32,964.99 909.75,965.49 909.38,966.44 C908.88,967.74 908.53,967.86 907.94,966.90 C907.31,965.88 906.85,965.88 905.58,966.94 C903.47,968.68 903.57,970.07 905.75,969.37 C907.23,968.90 907.27,968.98 906.00,969.89 C905.17,970.48 903.71,970.98 902.75,970.98 C901.79,970.99 901.00,971.65 901.00,972.45 C901.00,974.31 898.22,975.87 895.97,975.28 C895.01,975.03 893.92,975.31 893.55,975.91 C893.18,976.51 893.42,977.00 894.08,977.00 C894.73,977.00 894.14,977.89 892.77,978.97 C891.39,980.05 889.31,980.75 888.13,980.53 C886.77,980.26 886.00,980.62 886.00,981.52 C886.00,983.35 882.65,985.12 878.99,985.22 C877.40,985.26 876.19,985.80 876.30,986.40 C876.41,987.01 875.39,987.39 874.00,987.25 C872.29,987.07 871.92,987.27 872.83,987.86 C873.84,988.51 873.59,988.88 871.83,989.35 C870.55,989.69 868.49,989.98 867.25,989.99 C866.01,989.99 865.00,990.45 865.00,991.00 C865.00,991.55 864.66,991.90 864.25,991.79 C863.84,991.67 862.51,992.12 861.30,992.79 C860.09,993.46 857.84,994.09 856.30,994.19 C854.76,994.28 852.86,994.84 852.09,995.43 C851.06,996.21 850.56,996.16 850.26,995.26 C849.94,994.33 849.47,994.39 848.35,995.51 C846.68,997.18 844.54,997.55 845.50,996.00 C846.54,994.32 845.41,994.88 843.49,997.01 C841.70,998.99 841.72,999.01 845.09,998.35 C846.96,997.98 848.72,997.42 849.00,997.09 ZM 108.44 993.53 C107.37,992.72 105.60,992.02 104.50,991.96 L 102.50 991.86 L 104.50 991.00 C106.06,990.33 105.57,990.12 102.32,990.07 C99.75,990.03 97.47,989.33 96.40,988.25 C95.43,987.29 93.94,986.44 93.07,986.37 C92.21,986.29 90.26,985.91 88.75,985.51 C87.24,985.11 86.00,985.07 86.00,985.42 C86.00,986.09 86.75,986.42 100.00,991.59 C109.45,995.28 111.32,995.71 108.44,993.53 ZM 105.00 986.00 C105.00,985.45 104.55,985.00 104.00,985.00 C103.45,985.00 103.00,985.45 103.00,986.00 C103.00,986.55 103.45,987.00 104.00,987.00 C104.55,987.00 105.00,986.55 105.00,986.00 ZM 84.00 983.98 C84.00,983.42 82.43,982.22 80.50,981.30 C78.57,980.38 77.00,979.26 77.00,978.81 C77.00,978.37 76.57,978.00 76.04,978.00 C75.51,978.00 73.04,976.77 70.54,975.26 C67.20,973.24 66.00,971.89 66.00,970.14 C66.00,968.13 65.60,967.84 63.44,968.26 C61.48,968.63 61.02,968.40 61.45,967.26 C61.85,966.24 61.55,965.96 60.51,966.36 C58.13,967.27 56.00,965.98 56.00,963.63 C56.00,962.45 55.12,960.93 54.04,960.26 C52.33,959.19 52.16,959.26 52.71,960.76 C53.26,962.30 53.08,962.27 51.15,960.57 C49.68,959.28 49.33,958.42 50.08,957.95 C50.91,957.44 50.91,957.06 50.11,956.57 C49.50,956.19 49.00,956.41 49.00,957.06 C49.00,957.95 48.63,957.93 47.51,957.01 C46.69,956.33 46.31,955.30 46.67,954.73 C47.02,954.16 46.85,953.97 46.29,954.32 C45.00,955.12 41.53,951.37 41.51,949.16 C41.51,948.25 40.78,947.51 39.90,947.50 C37.70,947.50 32.66,941.32 33.37,939.49 C33.68,938.67 33.40,938.00 32.75,938.00 C32.10,938.00 30.33,936.55 28.82,934.79 C26.84,932.47 26.41,931.36 27.29,930.80 C28.21,930.21 28.19,930.03 27.19,930.02 C26.47,930.01 26.13,929.60 26.43,929.11 C26.73,928.63 26.09,927.99 24.99,927.71 C23.36,927.28 23.11,926.61 23.58,923.85 C24.11,920.68 24.06,920.60 22.57,922.44 C21.04,924.33 21.00,924.32 21.00,921.99 C21.00,920.22 20.71,919.89 19.87,920.73 C18.57,922.03 20.11,924.82 29.43,937.99 C41.04,954.40 57.03,968.56 80.00,982.80 C84.08,985.33 84.00,985.30 84.00,983.98 ZM 945.36 923.50 C945.71,922.59 945.36,922.00 944.47,922.00 C943.66,922.00 943.00,922.67 943.00,923.50 C943.00,924.33 943.40,925.00 943.89,925.00 C944.38,925.00 945.05,924.33 945.36,923.50 ZM 18.75 916.53 C18.95,913.73 18.69,913.18 17.41,913.67 C16.26,914.11 15.91,913.76 16.14,912.39 C16.75,908.77 11.09,898.58 9.40,900.26 C8.66,901.01 17.27,920.01 18.35,920.00 C18.43,920.00 18.61,918.44 18.75,916.53 ZM 961.41 895.70 C964.23,886.85 964.94,884.14 965.68,879.50 L 966.16 876.50 L 964.23 879.50 C963.17,881.15 962.67,882.74 963.12,883.04 C963.57,883.34 963.05,885.03 961.97,886.81 C960.01,890.03 959.15,892.86 961.00,890.00 C962.62,887.50 962.25,891.72 960.58,894.85 C958.96,897.88 955.98,905.68 956.03,906.77 C956.13,909.01 959.15,902.79 961.41,895.70 ZM 9.16 894.50 C8.96,892.03 8.39,890.26 7.90,890.56 C7.03,891.10 6.61,889.74 6.91,887.33 C6.99,886.68 6.53,885.83 5.89,885.43 C5.03,884.90 4.92,885.75 5.45,888.61 C6.15,892.33 8.56,899.00 9.21,899.00 C9.38,899.00 9.35,896.98 9.16,894.50 ZM 803.13 843.44 C802.12,840.72 800.09,835.66 798.61,832.19 C796.31,826.80 789.88,811.04 780.97,789.00 C779.75,785.97 776.36,777.65 773.45,770.50 C770.53,763.35 764.28,747.83 759.56,736.00 C754.83,724.17 750.59,713.82 750.13,712.99 C749.67,712.17 747.15,706.09 744.53,699.49 C736.82,680.07 733.00,670.69 731.50,667.50 C729.89,664.07 722.98,647.01 722.59,645.50 C722.45,644.95 721.75,643.15 721.04,641.50 C720.33,639.85 719.40,637.60 718.97,636.50 C718.54,635.40 716.41,630.22 714.24,625.00 C712.06,619.78 709.70,613.92 708.99,612.00 C708.28,610.08 707.12,607.15 706.41,605.50 C703.72,599.22 701.71,594.34 700.02,590.00 C695.40,578.11 688.70,561.76 685.67,555.00 C684.80,553.08 682.26,546.78 680.02,541.00 C677.77,535.22 675.52,529.60 675.02,528.50 C674.51,527.40 669.07,514.12 662.92,499.00 C656.77,483.88 649.97,467.23 647.80,462.00 C645.64,456.77 642.59,449.12 641.02,445.00 C638.47,438.26 633.36,425.77 631.00,420.50 C627.81,413.36 626.00,409.03 626.00,408.54 C626.00,407.92 615.97,383.26 612.87,376.26 C611.84,373.93 611.00,371.77 611.00,371.46 C611.00,371.14 610.15,369.00 609.12,366.70 C608.08,364.39 602.65,351.02 597.05,337.00 C591.45,322.98 586.05,309.70 585.06,307.50 C584.06,305.30 581.34,298.77 579.01,293.00 C576.68,287.23 573.22,278.67 571.33,274.00 C563.68,255.06 561.80,251.80 553.94,243.88 C541.84,231.68 528.93,226.41 508.00,225.14 C496.02,224.40 492.67,224.85 480.00,228.87 C465.58,233.44 452.31,244.51 445.16,257.93 C442.87,262.23 441.00,266.23 441.00,266.84 C441.00,267.45 439.90,270.32 438.57,273.22 C437.23,276.13 433.61,284.80 430.53,292.50 C427.45,300.20 424.42,307.62 423.80,309.00 C423.18,310.38 422.55,311.95 422.40,312.50 C422.26,313.05 420.07,318.45 417.55,324.50 C415.03,330.55 411.12,340.23 408.86,346.00 C406.60,351.77 403.88,358.45 402.83,360.84 C401.77,363.23 399.96,367.73 398.82,370.84 C397.67,373.95 396.35,376.98 395.89,377.58 C395.42,378.17 393.73,382.22 392.13,386.58 C390.52,390.93 385.97,402.38 382.02,412.00 C369.46,442.58 363.86,456.29 360.78,464.00 C357.70,471.69 353.52,481.94 352.01,485.50 C351.54,486.60 347.50,496.50 343.02,507.50 C338.55,518.50 334.29,528.85 333.56,530.50 C332.83,532.15 330.10,538.90 327.49,545.50 C324.88,552.10 321.95,559.30 320.97,561.50 C319.99,563.70 318.40,567.75 317.43,570.50 C316.46,573.25 315.29,575.93 314.83,576.45 C314.38,576.97 314.00,577.95 314.00,578.63 C314.00,579.31 312.70,582.70 311.12,586.18 C309.54,589.66 306.80,596.33 305.04,601.00 C303.27,605.67 301.43,610.27 300.94,611.20 C299.56,613.82 292.81,631.09 292.60,632.53 C292.50,633.23 291.92,634.41 291.33,635.15 C290.73,635.89 289.90,637.62 289.49,639.00 C289.07,640.38 287.50,644.20 285.98,647.50 C284.47,650.80 282.75,654.98 282.15,656.80 C281.56,658.61 280.16,661.26 279.04,662.68 C277.92,664.11 277.00,665.74 277.00,666.31 C277.00,666.88 276.34,668.08 275.52,668.97 C274.71,669.87 273.88,671.48 273.68,672.55 C272.83,677.06 271.73,680.00 270.89,680.00 C270.40,680.00 270.00,680.87 270.00,681.94 C270.00,683.01 269.60,684.13 269.12,684.43 C267.73,685.28 267.17,689.88 268.40,690.39 C269.00,690.64 268.71,690.88 267.75,690.92 C266.79,690.96 266.00,691.48 266.00,692.07 C266.00,692.66 265.24,693.90 264.32,694.82 C262.82,696.32 262.81,696.53 264.22,696.80 C265.50,697.05 264.29,700.86 257.88,716.80 C253.52,727.64 249.57,737.40 249.09,738.50 C247.00,743.33 243.18,752.79 242.02,756.00 C240.65,759.83 240.17,760.99 234.18,775.00 C231.95,780.22 225.78,795.30 220.49,808.50 C215.19,821.70 209.75,835.15 208.39,838.39 C207.04,841.62 206.18,844.51 206.47,844.80 C207.23,845.57 206.48,846.80 223.03,818.00 C231.41,803.42 241.40,786.10 245.24,779.50 C249.07,772.90 253.59,765.03 255.27,762.00 C256.96,758.97 259.39,754.82 260.67,752.77 C261.95,750.72 263.00,748.78 263.00,748.47 C263.00,748.16 264.48,745.56 266.29,742.70 C268.10,739.84 274.21,729.40 279.87,719.50 C299.80,684.62 303.91,677.81 306.44,675.46 C309.07,673.03 309.90,671.32 307.85,672.59 C306.56,673.39 312.79,661.30 314.75,659.20 C315.44,658.46 316.00,657.41 316.00,656.86 C316.00,656.31 317.27,653.98 318.83,651.68 C320.39,649.38 321.95,646.83 322.31,646.00 C322.67,645.17 324.07,642.70 325.42,640.50 C327.86,636.55 337.98,618.80 341.67,612.00 C342.71,610.08 344.72,606.70 346.13,604.50 C347.53,602.30 350.17,597.82 351.98,594.55 C353.80,591.28 357.53,584.76 360.28,580.05 C366.71,569.06 369.35,564.44 372.04,559.50 C374.24,555.45 395.81,518.07 405.51,501.50 C408.40,496.55 411.77,490.70 412.99,488.50 C414.21,486.30 418.23,479.33 421.93,473.00 C425.62,466.67 432.64,454.52 437.52,446.00 C442.40,437.48 451.33,421.95 457.37,411.50 C463.40,401.05 470.36,388.90 472.84,384.50 C475.32,380.10 477.61,376.27 477.94,376.00 C478.27,375.73 479.09,374.38 479.76,373.00 C480.44,371.62 482.32,368.25 483.95,365.50 C485.58,362.75 487.92,358.59 489.16,356.25 C490.39,353.91 491.76,352.00 492.20,352.00 C492.64,352.00 493.00,351.39 493.00,350.65 C493.00,349.91 495.25,345.53 498.00,340.90 C500.75,336.28 503.00,332.13 503.00,331.68 C503.00,331.22 503.71,331.00 504.57,331.18 C505.43,331.35 507.71,334.42 509.63,338.00 C511.56,341.58 514.17,346.08 515.44,348.00 C516.72,349.92 520.39,356.23 523.61,362.00 C530.30,374.01 529.87,373.27 540.50,391.45 C549.86,407.47 550.58,408.73 559.46,424.50 C563.18,431.10 566.85,437.21 567.61,438.08 C568.37,438.95 569.00,439.95 569.00,440.31 C569.00,440.95 571.01,444.48 596.47,488.50 C603.47,500.60 610.56,512.97 612.22,516.00 C613.88,519.03 616.08,522.69 617.12,524.15 C618.15,525.61 619.00,527.49 619.00,528.32 C619.00,529.15 619.35,529.98 619.78,530.17 C620.21,530.35 621.62,532.30 622.91,534.50 C629.29,545.39 644.61,571.97 646.54,575.50 C648.89,579.80 676.48,627.40 679.91,633.08 C681.05,634.96 682.29,637.17 682.68,638.00 C683.06,638.83 684.57,641.53 686.03,644.00 C687.50,646.47 694.00,657.72 700.49,669.00 C716.87,697.46 721.34,705.20 722.50,707.09 C723.05,707.99 724.80,711.14 726.39,714.10 C727.97,717.05 730.36,721.20 731.69,723.30 C734.02,727.00 735.91,730.25 740.39,738.31 C741.55,740.40 742.96,742.87 743.51,743.81 C744.07,744.74 746.48,748.88 748.86,753.00 C751.25,757.12 754.68,762.97 756.49,766.00 C758.29,769.03 760.62,773.08 761.65,775.00 C762.69,776.92 766.90,784.26 771.02,791.30 C778.85,804.71 782.54,811.15 785.73,817.00 C786.78,818.92 790.59,825.45 794.19,831.50 C797.79,837.55 801.50,844.00 802.44,845.84 C804.88,850.63 805.28,849.23 803.13,843.44 ZM 431.11 708.62 C433.02,707.71 472.79,668.71 522.25,619.25 L 609.99 531.50 L 606.36 525.50 C602.40,518.97 601.03,516.59 596.01,507.50 C594.19,504.20 592.39,501.27 592.00,501.00 C591.62,500.73 591.12,500.05 590.90,499.50 C589.64,496.34 580.73,481.00 580.16,481.00 C579.78,481.00 537.81,522.74 486.89,573.75 C427.14,633.60 393.72,667.79 392.65,670.15 C390.36,675.22 390.51,684.13 392.98,688.96 C395.29,693.49 407.05,705.45 411.46,707.75 C418.20,711.26 424.91,711.56 431.11,708.62 ZM 598.18 707.40 C603.65,703.96 613.57,693.64 616.08,688.79 C618.46,684.18 618.56,677.04 616.33,670.82 C614.92,666.88 609.79,661.28 583.45,634.95 L 552.24 603.75 L 532.00 624.00 L 511.76 644.25 L 542.63 675.19 C571.88,704.50 576.00,708.17 581.99,710.12 C586.28,711.52 593.58,710.29 598.18,707.40 ZM 477.50 569.00 L 497.49 549.00 L 463.50 515.00 C444.81,496.30 429.26,481.00 428.95,481.00 C428.65,481.00 427.42,482.91 426.23,485.25 C425.04,487.59 422.75,491.75 421.14,494.50 C411.98,510.14 400.00,531.31 400.00,531.86 C400.00,532.61 456.25,589.00 457.00,589.00 C457.29,589.00 466.51,580.00 477.50,569.00 ZM 706.96 434.51 L 749.01 392.51 L 791.26 434.76 C814.50,457.99 833.82,477.00 834.20,477.00 C834.58,477.00 834.50,475.76 834.01,474.25 C832.75,470.38 830.53,459.75 830.67,458.25 C830.73,457.56 830.38,457.00 829.89,457.00 C829.40,457.00 829.00,456.30 829.00,455.44 C829.00,452.96 824.31,438.17 821.25,431.00 C820.43,429.08 818.76,425.25 817.54,422.50 C816.32,419.75 814.46,415.48 813.42,413.00 C807.92,399.97 791.04,373.67 779.04,359.42 C765.86,343.77 761.24,339.00 759.26,339.00 C758.57,339.00 758.00,338.44 758.00,337.75 C758.00,336.16 755.06,333.43 742.00,322.88 C714.20,300.42 685.32,285.35 650.49,275.12 C644.78,273.44 629.00,270.00 627.00,270.00 C626.73,270.00 644.95,288.44 667.48,310.98 L 708.45 351.96 L 675.23 385.23 C656.96,403.53 641.74,418.80 641.42,419.17 C641.09,419.54 641.49,421.34 642.29,423.17 C643.80,426.63 645.96,431.92 655.49,455.50 C662.50,472.87 664.29,477.03 664.64,476.73 C664.80,476.60 683.84,457.60 706.96,434.51 ZM 347.68 469.46 C349.04,466.18 352.40,457.88 355.16,451.00 C357.92,444.12 360.77,437.15 361.49,435.50 C362.22,433.85 364.01,429.61 365.49,426.08 L 368.16 419.67 L 333.81 385.32 L 299.46 350.96 L 325.48 324.99 L 351.50 299.02 L 319.01 266.51 C301.13,248.63 286.06,234.00 285.50,234.00 C284.95,234.00 261.36,257.13 233.09,285.41 L 181.69 336.82 L 184.71 340.66 C192.40,350.42 195.83,361.15 195.85,375.48 C195.85,381.22 195.48,387.17 195.01,388.70 C194.55,390.24 193.63,393.30 192.97,395.50 C190.81,402.75 186.02,411.40 180.51,418.00 L 175.08 424.50 L 187.78 437.25 L 200.48 450.01 L 229.74 420.76 L 259.00 391.51 L 301.25 433.75 C324.49,456.99 343.88,475.87 344.35,475.72 C344.83,475.56 346.32,472.75 347.68,469.46 Z" fill="rgb(254,254,254)"/>
</g>
</svg>